<svg width="24" height="24" viewBox="0 0 24 24" fill="none" xmlns="http://www.w3.org/2000/svg">
<path d="M18.7501 9.71195V9.00695C18.7501 5.13795 15.7261 2.00195 12.0001 2.00195C8.27406 2.00195 5.25006 5.13795 5.25006 9.00695V9.71195C5.25127 10.5535 5.01111 11.3778 4.55806 12.087L3.45006 13.812C2.43906 15.387 3.21106 17.528 4.97006 18.026C9.56617 19.3289 14.434 19.3289 19.0301 18.026C20.7891 17.528 21.5611 15.387 20.5501 13.813L19.4421 12.088C18.9887 11.3789 18.7482 10.5546 18.7491 9.71295L18.7501 9.71195Z" stroke="#434146" stroke-width="1.5"/>
<path d="M7.5 19.0029C8.155 20.7509 9.922 22.0029 12 22.0029C14.078 22.0029 15.845 20.7509 16.5 19.0029" stroke="#434146" stroke-width="1.5" stroke-linecap="round"/>
</svg>
