<svg width="24" height="24" viewBox="0 0 24 24" fill="none" xmlns="http://www.w3.org/2000/svg">
<path d="M21 11.75C21 14.2033 20.0254 16.556 18.2907 18.2907C16.556 20.0254 14.2033 21 11.75 21V22.5C17.687 22.5 22.5 17.687 22.5 11.75H21ZM11.75 21C9.29675 21 6.94397 20.0254 5.20926 18.2907C3.47455 16.556 2.5 14.2033 2.5 11.75H1C1 17.687 5.813 22.5 11.75 22.5V21ZM2.5 11.75C2.5 9.29675 3.47455 6.94397 5.20926 5.20926C6.94397 3.47455 9.29675 2.5 11.75 2.5V1C5.813 1 1 5.813 1 11.75H2.5ZM15.25 14C13.725 14 12.2625 13.3942 11.1841 12.3159C10.1058 11.2375 9.5 9.77499 9.5 8.25H8C8 10.1728 8.76384 12.0169 10.1235 13.3765C11.4831 14.7362 13.3272 15.5 15.25 15.5V14ZM20.175 11.219C19.6636 12.0679 18.9413 12.7701 18.0784 13.2574C17.2154 13.7447 16.2411 14.0005 15.25 14V15.5C16.4994 15.5007 17.7278 15.1783 18.8159 14.5641C19.904 13.95 20.8148 13.065 21.46 11.995L20.175 11.219ZM9.5 8.25C9.49957 7.25897 9.75541 6.28467 10.2427 5.42171C10.73 4.55875 11.4322 3.83647 12.281 3.325L11.505 2.041C10.4351 2.68599 9.55011 3.59665 8.93597 4.68457C8.32184 5.77249 7.99941 7.00071 8 8.25H9.5ZM11.75 2.5C11.6486 2.49761 11.5522 2.45519 11.482 2.382C11.4391 2.34023 11.4104 2.286 11.4 2.227C11.396 2.196 11.398 2.106 11.505 2.041L12.281 3.325C12.784 3.021 12.946 2.464 12.887 2.026C12.825 1.571 12.467 1 11.75 1V2.5ZM21.46 11.995C21.394 12.102 21.304 12.104 21.273 12.1C21.214 12.0896 21.1598 12.0609 21.118 12.018C21.0448 11.9478 21.0024 11.8514 21 11.75H22.5C22.5 11.033 21.929 10.675 21.474 10.613C21.036 10.554 20.479 10.716 20.175 11.219L21.46 11.995Z" fill="#434146"/>
</svg>
