<svg width="24" height="24" viewBox="0 0 24 24" fill="none" xmlns="http://www.w3.org/2000/svg">
<path d="M10.6657 11.9245C11.8492 11.9245 12.9843 11.4544 13.8212 10.6175C14.6581 9.7807 15.1282 8.64571 15.1282 7.46225C15.1282 6.27879 14.6581 5.1438 13.8212 4.30696C12.9843 3.47013 11.8492 3 10.6657 3C9.48213 3 8.34707 3.47013 7.51018 4.30696C6.67329 5.1438 6.20313 6.27879 6.20313 7.46225C6.20313 8.64571 6.67329 9.7807 7.51018 10.6175C8.34707 11.4544 9.48213 11.9245 10.6657 11.9245Z" stroke="#434146" stroke-width="2" stroke-linecap="round" stroke-linejoin="round"/>
<path d="M3 20.8463C3 17.3925 6.43617 14.5991 10.6667 14.5991C11.5949 14.5991 12.4874 14.733 13.3174 14.9829" stroke="#434146" stroke-width="2" stroke-linecap="round" stroke-linejoin="round"/>
<path d="M15.0226 19.3217L15.8779 20.177M19.8198 18.3697C19.4567 18.732 19.0015 18.9882 18.5035 19.1107C18.0054 19.2332 17.4833 19.2175 16.9935 19.0651L15.242 20.8128C15.1155 20.943 14.8664 21.0211 14.6879 20.995L13.8772 20.8835C13.6094 20.8463 13.3603 20.5934 13.3194 20.3257L13.2078 19.5151C13.1818 19.3366 13.2673 19.0874 13.39 18.961L15.1379 17.2133C14.8404 16.2465 15.0709 15.1495 15.837 14.3872C16.934 13.2902 18.7153 13.2902 19.8161 14.3872C20.9169 15.4842 20.9169 17.2728 19.8198 18.3697Z" stroke="#434146" stroke-miterlimit="10" stroke-linecap="round" stroke-linejoin="round"/>
<path d="M18 17C18.2652 17 18.5196 16.8946 18.7071 16.7071C18.8946 16.5196 19 16.2652 19 16C19 15.7348 18.8946 15.4804 18.7071 15.2929C18.5196 15.1054 18.2652 15 18 15C17.7348 15 17.4804 15.1054 17.2929 15.2929C17.1054 15.4804 17 15.7348 17 16C17 16.2652 17.1054 16.5196 17.2929 16.7071C17.4804 16.8946 17.7348 17 18 17Z" stroke="#434146" stroke-linecap="round" stroke-linejoin="round"/>
</svg>
