<svg width="51" height="48" viewBox="0 0 51 48" fill="none" xmlns="http://www.w3.org/2000/svg">
<g clip-path="url(#clip0_153_5095)">
<path d="M44.5927 32.2166C44.5784 32.1593 44.5641 32.1021 44.5426 32.0448C44.4281 31.7013 44.2348 31.3864 43.9916 31.1073C42.6604 29.5614 39.7762 28.8959 39.7762 28.8959C36.9206 28.5666 36.663 26.348 36.663 26.348C38.0299 25.253 38.5953 23.7072 38.5953 23.7072C40.635 22.8626 40.0911 19.9212 40.0911 19.9212C39.7834 19.592 39.1822 16.3929 39.1822 16.3929C36.341 10.7748 31.1953 13.1509 30.315 13.6089C30.2863 13.6232 30.2577 13.6375 30.2434 13.6518C30.2076 13.6733 30.1861 13.6876 30.1861 13.6876C29.5707 14.6323 29.2629 15.8275 29.1484 17.1014C29.1842 17.1157 29.22 17.13 29.2486 17.1444C29.4633 17.2445 29.6279 17.3805 29.6494 17.5452V19.2055C29.7925 18.5972 30.0502 18.1606 30.5511 18.1392C30.5511 18.1392 30.5511 18.1392 30.5583 18.1463C30.5869 18.1463 30.6227 18.1392 30.6585 18.1392C30.6585 18.1392 31.8394 19.1125 31.045 21.2881C31.045 21.2881 30.6656 22.9056 29.7353 22.834C29.7066 22.834 29.678 22.834 29.6422 22.834C29.6422 22.834 29.6136 22.834 29.5993 22.834C29.5993 22.8626 29.6064 22.8841 29.6136 22.9128C29.7424 23.564 29.8784 24.1652 30.0001 24.6733C30.0287 24.7879 30.0573 24.9024 30.0788 25.0169C30.2148 25.5894 30.3293 26.0259 30.3793 26.2765C30.3793 26.2979 30.3793 26.3194 30.3865 26.3337C30.3865 26.3766 30.4009 26.4125 30.4009 26.4411C30.4438 27.1568 29.9643 27.7293 29.8354 27.8653C29.814 27.8867 29.8068 27.9011 29.8068 27.9011L30.2362 28.0012L30.6585 28.0943C31.002 27.7293 31.1881 27.2713 31.2668 26.7488C33.0488 27.6792 34.6377 27.4859 36.1048 26.6415C36.2622 27.8509 36.9135 28.5523 37.8081 29.0104C37.8868 30.2771 37.2499 31.2791 36.3481 32.188L36.3266 32.2095L36.2694 32.4456L36.2193 32.6675H44.5999C44.5999 32.3955 44.5999 32.2166 44.5999 32.2166M31.1881 25.7826C31.1451 25.754 31.1022 25.7326 31.0592 25.7039C30.637 25.5322 30.3293 25.3103 30.1861 25.0097C30.1361 24.9024 30.1074 24.795 30.1074 24.6662C30.1074 24.6519 30.1074 24.6375 30.1074 24.6232C30.9591 24.7735 31.6175 24.5588 32.1328 24.0364C32.1328 24.0364 32.1399 24.0292 32.1471 24.0221C32.1042 24.0221 32.0684 24.0292 32.0326 24.0364C31.6175 24.065 31.3169 23.929 31.1595 23.5998C30.9805 23.2205 30.9949 22.5692 31.2596 21.5744C31.7177 20.3077 31.7607 18.9049 31.5745 17.4163C31.5531 17.2803 31.5388 17.1444 31.5173 17.0084C31.5173 17.0012 31.5173 16.9869 31.5173 16.9797C31.46 16.5861 31.3813 16.1925 31.2954 15.7917C31.3169 15.7917 31.3384 15.7989 31.3527 15.806C33.1061 16.1925 34.7235 16.2712 36.112 15.7917C37.0638 15.5913 37.6793 16.2426 37.894 17.9244C38.1373 19.3773 38.0729 20.7299 37.3787 21.8822C37.8153 21.9752 38.1802 21.4456 38.3806 19.5777C38.7456 18.8119 39.1035 18.8047 39.4541 19.9999C39.6617 21.3239 39.3611 22.4476 38.0944 23.1919C36.4698 26.2049 34.3729 27.715 31.2024 25.7755" fill="#FFFBFA"/>
<path d="M19.2798 19.3995C19.3155 18.9056 19.3585 18.2616 19.3943 17.6532L19.2798 19.3995ZM20.8614 27.9304V27.9018V27.8517L20.1529 26.5277L20.3676 26.3273L20.4105 26.2844L21.2765 25.4685L20.5107 23.6292L19.3298 20.516L19.2297 20.2583L19.3799 20.7736L19.9883 22.8849V23.987L20.5322 24.4522L20.4606 24.6669L20.4463 24.7099C20.8471 24.8673 18.2706 26.6207 17.7339 26.4132V25.6546H16.553V26.3345C14.5849 26.0267 13.3039 24.9603 12.6526 23.1998C12.6526 23.1998 10.0976 21.7541 11.7508 19.2564C11.7508 19.2564 12.6741 19.8432 12.7814 22.1262C12.7814 22.1262 13.9122 23.4288 13.218 21.4034C12.5237 19.3852 12.488 14.6116 15.7586 15.7924C15.7586 15.7924 17.5407 18.6695 19.0436 17.2596L19.1223 17.3312L19.2225 17.417L19.4157 17.5959C19.4372 17.2023 19.4587 16.823 19.4658 16.5153C19.4658 16.5153 19.43 16.5153 19.3657 16.5296C19.337 16.5296 19.3012 16.5367 19.2583 16.5439C18.8145 16.594 17.8126 16.6441 17.6695 16.0215V15.9857L19.4085 15.9285H19.4658C19.4658 15.8568 19.4658 15.8068 19.4515 15.7781C19.4515 15.7638 19.4515 15.7567 19.4444 15.7567C19.4157 15.7137 19.4802 15.5419 19.6089 15.3058C19.6948 15.1483 19.7951 14.9623 19.9167 14.769C20.3103 14.1177 20.8113 13.3591 20.9044 13.216C20.9115 13.2016 20.9186 13.1945 20.9186 13.1945C20.8972 13.1802 20.8829 13.1588 20.8614 13.1444C19.3513 11.8061 16.7892 12.0709 16.7749 12.1997C16.7605 12.3286 14.4418 13.0156 14.4418 13.0156C11.758 13.3949 11.0995 15.7352 11.1282 18.7339C10.1549 21.1959 10.62 22.7918 12.2375 23.7007C12.5452 24.5739 13.1894 25.5114 14.0196 26.4848C14.0983 27.9949 11.4646 29.0254 8.17243 29.9415C7.44248 30.3136 6.90569 30.7502 6.56218 31.2369C6.31167 31.5947 6.1614 31.9812 6.09699 32.3963C6.08268 32.4821 6.07551 32.5752 6.06836 32.6683H15.3793C15.4151 31.6949 15.7229 30.1061 17.3188 29.92C17.3188 29.92 17.3188 29.9272 17.3259 29.9344C17.3617 29.9344 17.3903 29.92 17.4262 29.92C18.056 31.1152 18.7501 32.0742 19.5517 32.5466L20.7182 32.4893C19.3799 31.6806 18.2277 30.786 17.8198 29.5479C18.8289 29.1184 19.8666 28.7893 20.933 28.6461L20.8686 27.9304H20.8614ZM19.4873 28.324C19.337 28.3813 19.1653 28.4529 18.972 28.5244C17.7482 29.0183 15.8516 29.8556 15.093 30.557C14.9213 30.7144 14.8139 30.8647 14.7781 31.0007C14.7781 31.0007 14.771 30.9864 14.7567 30.9578C14.6064 30.6858 13.769 29.1471 13.8621 28.503C13.8621 28.503 14.6278 27.5583 14.6278 27.043C15.4222 27.7515 16.2382 28.2596 17.0969 28.2811C18.2062 27.9304 18.9935 27.4581 19.5374 26.8927C19.6447 27.3436 19.8022 27.7658 20.0884 28.1022C20.0884 28.1022 19.8594 28.1881 19.4873 28.3312M17.1757 30.2635C16.231 30.7288 15.8159 31.5732 15.7729 32.6825H18.9362C18.9362 32.6825 19.0078 32.6754 19.0436 32.6683C18.2062 31.9812 17.6194 31.1653 17.1828 30.2635M19.4587 15.9714V16.1288V16.5296C19.4587 16.3721 19.4587 16.2362 19.4587 16.1217C19.4587 16.0716 19.4587 16.0215 19.4587 15.9785" fill="#FFFBFA"/>
<path d="M19.1442 32.6498C19.1442 32.6498 19.0798 32.6569 19.0441 32.6641H15.7734C15.8163 31.5548 16.2314 30.7103 17.1761 30.2451C17.2047 30.2308 17.2334 30.2164 17.262 30.2021C17.6986 31.1182 18.2926 31.9556 19.1442 32.6498Z" fill="#249D64"/>
<path d="M19.1442 32.6498C19.1442 32.6498 19.0798 32.6569 19.0441 32.6641H15.7734C15.8163 31.5548 16.2314 30.7103 17.1761 30.2451C17.2047 30.2308 17.2334 30.2164 17.262 30.2021C17.6986 31.1182 18.2926 31.9556 19.1442 32.6498Z" fill="#249D64"/>
<path d="M36.3769 32.4462C36.3769 32.3603 36.3626 32.2673 36.3483 32.1814C36.1908 30.9504 35.6254 29.9413 34.237 29.3831C33.0633 28.9036 31.7179 28.4455 30.2292 27.9947C30.1219 27.966 30.0146 27.9302 29.9072 27.9016C29.8786 27.8873 29.8571 27.8801 29.8356 27.8658C29.2845 27.6082 28.8766 27.3076 29.0126 26.8352C29.4277 26.7994 29.8929 26.6277 30.3867 26.3343C30.4153 26.3128 30.4511 26.2913 30.4797 26.277C30.7087 26.141 30.9378 25.9764 31.1811 25.7832C31.1882 25.7832 31.2026 25.7689 31.2097 25.7617C31.1596 25.7403 31.1095 25.7259 31.0523 25.7045C30.63 25.5327 30.3223 25.3109 30.1792 25.0102C30.1291 24.9101 30.1004 24.7956 30.1004 24.6667C30.1004 24.6524 30.1004 24.6381 30.1004 24.6238C30.9521 24.7741 31.6105 24.5594 32.1258 24.0369C32.1258 24.0369 32.1329 24.0298 32.1401 24.0226C32.1759 23.9868 32.2045 23.951 32.2403 23.9153C31.8109 23.9224 31.4674 23.8365 31.2598 23.5932C31.0236 23.3141 30.9736 22.8346 31.1811 22.0545C31.7321 20.2223 31.8324 18.7194 31.6749 17.4097C31.6606 17.2666 31.6391 17.1377 31.6176 17.0018C31.6176 16.9946 31.6176 16.9803 31.6176 16.9731C31.5533 16.5652 31.4602 16.1715 31.3457 15.7994C31.1954 15.2841 31.0094 14.7903 30.8018 14.3108C30.8018 14.3108 30.6658 14.0317 30.3581 13.6309C30.3509 13.6166 30.3366 13.6022 30.3223 13.588C29.6281 12.7077 28.118 11.3192 25.4413 11.1689C23.1941 11.2978 21.7699 12.2925 20.9541 13.1299C20.9326 13.1514 20.9112 13.18 20.8896 13.2015C20.3243 13.8026 20.081 14.3036 20.081 14.3036C20.0165 14.4539 19.9521 14.6042 19.8949 14.7545C19.8233 14.9334 19.7589 15.1123 19.6945 15.2913C19.6444 15.4487 19.5871 15.6062 19.5442 15.7636C19.5299 15.8137 19.5156 15.8638 19.5012 15.9139C19.487 15.9712 19.4726 16.0212 19.4583 16.0785C19.4583 16.0785 19.4583 16.0857 19.4583 16.0928C19.4225 16.2288 19.3867 16.3648 19.3581 16.5079C19.3581 16.5079 19.3581 16.5151 19.3581 16.5223C19.3008 16.7727 19.258 17.0376 19.2221 17.3023C19.2221 17.331 19.2221 17.3596 19.215 17.3882C19.1005 18.3114 19.1219 19.3277 19.3295 20.4871C19.3438 20.573 19.3581 20.6517 19.3796 20.7376C19.4655 21.1527 19.5728 21.5893 19.7088 22.0401C20.1024 23.5001 19.5728 23.9153 18.6496 23.8938C19.1076 24.4234 19.7016 24.6882 20.4531 24.6381C20.4889 24.6381 20.5247 24.6381 20.5605 24.6309C20.632 24.6309 20.7036 24.6094 20.7823 24.6023C20.7823 25.1391 20.3529 25.4969 19.673 25.7403C19.9235 25.9406 20.174 26.1124 20.4101 26.2555C20.4316 26.2698 20.4531 26.2842 20.4746 26.2913C20.9755 26.5919 21.4407 26.7708 21.8702 26.8066C22.0133 27.3004 21.5696 27.6082 20.9827 27.873C20.9469 27.8801 20.9183 27.8944 20.8896 27.9016C20.4531 28.0304 20.0309 28.1664 19.6229 28.2952C19.4154 28.3597 19.2078 28.4312 19.0003 28.4956C18.1558 28.7747 17.3685 29.061 16.6528 29.3544C15.9515 29.6407 15.4577 30.0343 15.1213 30.521C15.0354 30.6498 14.9567 30.7858 14.8923 30.9218C14.649 31.4299 14.5345 32.0096 14.5059 32.6394H15.5078C15.5435 31.6875 15.8442 30.1417 17.3471 29.9055C17.3829 29.9055 17.4115 29.8912 17.4472 29.8912C18.0842 31.0864 18.7713 32.0454 19.5728 32.5177C19.5728 32.5177 19.5728 32.5177 19.58 32.5177L20.8467 32.4533C19.5084 31.6446 18.3562 30.75 17.9554 29.5119C18.9645 29.0825 20.0022 28.7533 21.0686 28.6029C21.0829 28.6029 21.0972 28.6029 21.1115 28.6029C22.1851 28.1306 22.9294 27.3649 23.144 26.1053C23.8097 26.4702 24.5182 26.7851 25.47 26.7994C26.4219 26.7851 27.1304 26.4702 27.796 26.1053C28.0106 27.3577 28.755 28.1306 29.8285 28.6029C30.9163 28.7461 31.9612 29.0825 32.9846 29.5119C32.5838 30.75 31.4244 31.6446 30.0933 32.4533L31.36 32.5177C32.1687 32.0454 32.8558 31.0792 33.4927 29.884C35.0815 30.0701 35.3893 31.6661 35.4322 32.6323H36.4342C36.4342 32.5536 36.427 32.4819 36.4198 32.4104M25.4771 25.9764C22.5787 26.1911 21.2618 22.7844 21.2618 22.7844C20.2599 22.9634 19.8591 21.2457 19.8591 21.2457C19.0718 19.0701 20.2456 18.0968 20.2456 18.0968C20.904 18.1254 21.133 18.8482 21.2547 19.7643V17.4956C21.3334 16.8872 23.2228 16.7584 23.2228 16.7584C23.0725 15.6205 24.3822 14.7402 24.3822 14.7402C24.4466 15.3986 23.9814 16.3863 23.9814 16.3863H26.9586C26.9586 16.3863 26.4934 15.3986 26.5578 14.7402C26.5578 14.7402 27.8675 15.6205 27.7172 16.7584C27.7172 16.7584 28.6046 16.8228 29.1844 17.059C29.2201 17.0733 29.2559 17.0876 29.2845 17.1019C29.4993 17.2021 29.6639 17.3381 29.6853 17.5027V19.7715C29.7998 18.9054 30.0146 18.2041 30.5942 18.111C30.6228 18.111 30.6587 18.1039 30.6945 18.1039C30.6945 18.1039 31.8753 19.0772 31.0809 21.2529C31.0809 21.2529 30.7016 22.8703 29.7712 22.7988C29.7569 22.7988 29.7498 22.7988 29.7354 22.7988C29.7139 22.7988 29.6997 22.7988 29.6782 22.7988C29.6782 22.7988 29.6782 22.7988 29.6782 22.8131C29.6782 22.8131 29.6639 22.8489 29.6495 22.8918C29.4205 23.4214 28.0965 26.1911 25.4771 25.9979" fill="#249D64"/>
<path d="M19.1442 32.6498C19.1442 32.6498 19.0798 32.6569 19.0441 32.6641H15.7734C15.8163 31.5548 16.2314 30.7103 17.1761 30.2451C17.2047 30.2308 17.2334 30.2164 17.262 30.2021C17.6986 31.1182 18.2926 31.9556 19.1442 32.6498Z" fill="#249D64"/>
<path d="M35.1072 32.6641H31.8366C31.8366 32.6641 31.7721 32.6569 31.7363 32.6498C32.588 31.9556 33.182 31.1182 33.6186 30.2021C34.6277 30.6602 35.0642 31.519 35.1072 32.6641Z" fill="#249D64"/>
<path d="M25.3266 0.825195C11.4353 0.825195 0.134766 12.1259 0.134766 26.0173C0.134766 28.3217 0.442507 30.5475 1.0222 32.666H3.6559C3.01178 30.5618 2.6611 28.3289 2.6611 26.0173C2.6611 13.5214 12.8309 3.35156 25.3266 3.35156C37.8223 3.35156 47.9921 13.5214 47.9921 26.0173C47.9921 28.3289 47.6413 30.5618 46.9973 32.666H49.6309C50.2106 30.5475 50.5184 28.3146 50.5184 26.0173C50.5184 12.1259 39.2178 0.825195 25.3266 0.825195Z" fill="#249D64"/>
<path d="M7.01316 38.3278C7.01316 38.3278 7.01316 38.3708 6.98455 38.3708H5.85379C5.85379 38.3708 5.81801 38.3564 5.82516 38.3278L6.3977 36.374C6.3977 36.374 6.40487 36.3525 6.41915 36.3525C6.42631 36.3525 6.43348 36.3597 6.44065 36.374L7.01316 38.3278Z" fill="#FFFBFA"/>
<path d="M27.4514 38.3277L26.8789 36.3739C26.8789 36.3739 26.8645 36.3452 26.8574 36.3524C26.8431 36.3524 26.8359 36.3596 26.8359 36.3739L26.2633 38.3277C26.2633 38.3277 26.2705 38.3706 26.2992 38.3706H27.4228C27.4228 38.3706 27.4657 38.3563 27.4514 38.3277ZM27.4514 38.3277L26.8789 36.3739C26.8789 36.3739 26.8645 36.3452 26.8574 36.3524C26.8431 36.3524 26.8359 36.3596 26.8359 36.3739L26.2633 38.3277C26.2633 38.3277 26.2705 38.3706 26.2992 38.3706H27.4228C27.4228 38.3706 27.4657 38.3563 27.4514 38.3277ZM27.4514 38.3277L26.8789 36.3739C26.8789 36.3739 26.8645 36.3452 26.8574 36.3524C26.8431 36.3524 26.8359 36.3596 26.8359 36.3739L26.2633 38.3277C26.2633 38.3277 26.2705 38.3706 26.2992 38.3706H27.4228C27.4228 38.3706 27.4657 38.3563 27.4514 38.3277ZM38.1078 36.3739C38.1078 36.3739 38.1078 36.3452 38.0864 36.3524C38.0792 36.3524 38.072 36.3596 38.0649 36.3739L37.4995 38.3277C37.4995 38.3277 37.4995 38.3706 37.5281 38.3706H38.6589C38.6589 38.3706 38.6946 38.3563 38.6875 38.3277L38.1078 36.3739ZM38.1078 36.3739C38.1078 36.3739 38.1078 36.3452 38.0864 36.3524C38.0792 36.3524 38.072 36.3596 38.0649 36.3739L37.4995 38.3277C37.4995 38.3277 37.4995 38.3706 37.5281 38.3706H38.6589C38.6589 38.3706 38.6946 38.3563 38.6875 38.3277L38.1078 36.3739ZM27.4514 38.3277L26.8789 36.3739C26.8789 36.3739 26.8645 36.3452 26.8574 36.3524C26.8431 36.3524 26.8359 36.3596 26.8359 36.3739L26.2633 38.3277C26.2633 38.3277 26.2705 38.3706 26.2992 38.3706H27.4228C27.4228 38.3706 27.4657 38.3563 27.4514 38.3277ZM50.6679 33.0889H-0.00195312L2.1737 37.4689L-0.00195312 41.8488H50.6679L48.4923 37.4689L50.6679 33.0889ZM8.78655 40.1169H7.62714C7.56992 40.1169 7.53414 40.0954 7.51981 40.0453L7.32658 39.3654C7.32658 39.3654 7.30508 39.3368 7.28364 39.3368H5.55885C5.55885 39.3368 5.53022 39.3511 5.52307 39.3654L5.32268 40.0453C5.30837 40.0954 5.27258 40.1169 5.22248 40.1169H4.06309C4.0273 40.1169 4.00584 40.1097 3.99152 40.0954C3.97721 40.074 3.97721 40.0453 3.98436 40.0095L5.60179 34.8924C5.62326 34.8423 5.65189 34.8208 5.70199 34.8208H7.13336C7.18341 34.8208 7.21925 34.8423 7.23352 34.8924L8.86528 40.0095C8.86528 40.0095 8.87245 40.0382 8.87245 40.0525C8.87245 40.0954 8.84384 40.1169 8.78655 40.1169ZM13.2238 40.031C13.2238 40.031 13.2166 40.074 13.1951 40.0954C13.1808 40.1097 13.1594 40.1169 13.1307 40.1169H9.51657C9.51657 40.1169 9.46646 40.1097 9.45212 40.0954C9.43068 40.074 9.42351 40.0525 9.42351 40.031V34.9067C9.42351 34.9067 9.43068 34.8638 9.45212 34.8423C9.46646 34.828 9.4879 34.8208 9.51657 34.8208H10.59C10.59 34.8208 10.633 34.8208 10.6545 34.8423C10.6688 34.8638 10.6831 34.8853 10.6831 34.9067V39.0076C10.6831 39.0076 10.6831 39.0434 10.7189 39.0434H13.1307C13.1307 39.0434 13.1808 39.0505 13.1951 39.072C13.2166 39.0863 13.2238 39.1078 13.2238 39.1364V40.031ZM19.2498 36.5456C19.2498 36.5456 19.2426 36.5886 19.2283 36.61C19.2068 36.6244 19.1853 36.6315 19.1639 36.6315H18.0832C18.0832 36.6315 18.0402 36.6244 18.0188 36.61C18.0045 36.5886 17.9973 36.5671 17.9973 36.5456C17.9973 36.3452 17.9257 36.1806 17.7898 36.0375C17.6466 35.9015 17.4606 35.8299 17.2244 35.8299C16.9882 35.8299 16.8021 35.9087 16.6662 36.059C16.523 36.2092 16.4514 36.4096 16.4514 36.653V38.2776C16.4514 38.5209 16.5302 38.7213 16.6876 38.8716C16.845 39.0219 17.0383 39.0934 17.2745 39.0934C17.4963 39.0934 17.6752 39.0362 17.8112 38.9217C17.9472 38.8 18.0188 38.6354 18.0188 38.4207V38.2132C18.0188 38.2132 18.0045 38.1702 17.983 38.1702H17.2244C17.2244 38.1702 17.1743 38.1631 17.1599 38.1487C17.1385 38.1273 17.1313 38.1058 17.1313 38.0843V37.247C17.1313 37.247 17.1385 37.204 17.1599 37.1826C17.1743 37.1683 17.1958 37.1539 17.2244 37.1539H19.1639C19.1639 37.1539 19.2068 37.1683 19.2283 37.1826C19.2426 37.204 19.2498 37.2255 19.2498 37.247V38.2776C19.2498 38.6569 19.171 38.9933 18.9993 39.2795C18.8275 39.5658 18.5913 39.7877 18.2836 39.9451C17.983 40.1026 17.6252 40.1813 17.2244 40.1813C16.8236 40.1813 16.4658 40.1026 16.158 39.938C15.8503 39.7733 15.6141 39.5515 15.4495 39.258C15.2777 38.9647 15.1918 38.6211 15.1918 38.2418V36.6887C15.1918 36.3023 15.2777 35.9659 15.4495 35.6797C15.6141 35.3862 15.8503 35.1644 16.158 34.9998C16.4658 34.8351 16.8164 34.7564 17.2244 34.7564C17.6323 34.7564 17.9758 34.8351 18.2836 34.9854C18.5913 35.1429 18.8275 35.3504 18.9993 35.6224C19.171 35.8872 19.2498 36.1806 19.2498 36.5099V36.5456ZM23.916 40.031C23.916 40.031 23.9088 40.074 23.8945 40.0954C23.873 40.1097 23.8515 40.1169 23.8301 40.1169H22.7494C22.7494 40.1169 22.7064 40.1097 22.685 40.0954C22.6707 40.074 22.6635 40.0525 22.6635 40.031V38.0128C22.6635 38.0128 22.6492 37.977 22.6206 37.977H21.2035C21.2035 37.977 21.1677 37.9913 21.1677 38.0128V40.031C21.1677 40.031 21.1606 40.074 21.1391 40.0954C21.1248 40.1097 21.1034 40.1169 21.0747 40.1169H20.0012C20.0012 40.1169 19.9583 40.1097 19.9368 40.0954C19.9225 40.074 19.9082 40.0525 19.9082 40.031V34.9067C19.9082 34.9067 19.9225 34.8638 19.9368 34.8423C19.9583 34.828 19.9797 34.8208 20.0012 34.8208H21.0747C21.0747 34.8208 21.1248 34.8208 21.1391 34.8423C21.1606 34.8638 21.1677 34.8853 21.1677 34.9067V36.8605C21.1677 36.8605 21.1821 36.9035 21.2035 36.9035H22.6206C22.6206 36.9035 22.6635 36.8891 22.6635 36.8605V34.9067C22.6635 34.9067 22.6707 34.8638 22.685 34.8423C22.7064 34.828 22.7279 34.8208 22.7494 34.8208H23.8301C23.8301 34.8208 23.873 34.8208 23.8945 34.8423C23.9088 34.8638 23.916 34.8853 23.916 34.9067V40.031ZM29.2263 40.1169H28.0669C28.0096 40.1169 27.9738 40.0954 27.9595 40.0453L27.7663 39.3654C27.7663 39.3654 27.7448 39.3368 27.7305 39.3368H25.9986C25.9986 39.3368 25.9699 39.3511 25.9628 39.3654L25.7624 40.0453C25.7481 40.0954 25.7123 40.1169 25.6622 40.1169H24.5028C24.467 40.1169 24.4455 40.1097 24.4313 40.0954C24.4169 40.074 24.4169 40.0453 24.4241 40.0095L26.0487 34.8924C26.063 34.8423 26.0916 34.8208 26.1417 34.8208H27.573C27.6231 34.8208 27.6589 34.8423 27.6733 34.8924L29.305 40.0095C29.305 40.0095 29.3121 40.0382 29.3121 40.0525C29.3121 40.0954 29.2835 40.1169 29.2263 40.1169ZM34.7012 40.1169H33.6205C33.5633 40.1169 33.5347 40.0882 33.5203 40.0382L32.8619 37.111C32.8619 37.111 32.8476 37.0824 32.8404 37.0824C32.8261 37.0824 32.819 37.0895 32.819 37.111L32.225 40.0382C32.2178 40.0882 32.182 40.1169 32.1247 40.1169H31.1157C31.0584 40.1169 31.0226 40.0954 31.0083 40.0453L29.5984 34.9139V34.8853C29.5912 34.8423 29.6199 34.8208 29.6771 34.8208H30.8222C30.8723 34.8208 30.9081 34.8423 30.9224 34.8924L31.5808 37.6478C31.5808 37.6478 31.5952 37.6836 31.6023 37.6836C31.6166 37.6836 31.6238 37.6692 31.631 37.6478L32.2178 34.8995C32.225 34.8423 32.2607 34.8208 32.318 34.8208H33.37C33.4202 34.8208 33.4559 34.8423 33.4702 34.8924L34.1287 37.6478C34.1287 37.6478 34.1358 37.6836 34.1501 37.6836C34.1573 37.6836 34.1644 37.6692 34.1716 37.6478L34.7871 34.8995C34.7942 34.8423 34.83 34.8208 34.8873 34.8208H36.0037C36.0753 34.8208 36.1039 34.8495 36.0896 34.9139L34.8086 40.0453C34.7942 40.0954 34.7585 40.1169 34.7012 40.1169ZM40.4552 40.1169H39.303C39.2458 40.1169 39.2099 40.0954 39.1957 40.0453L38.9953 39.3654C38.9953 39.3654 38.9738 39.3368 38.9595 39.3368H37.2347C37.2347 39.3368 37.2061 39.3511 37.1917 39.3654L36.9985 40.0453C36.9842 40.0954 36.9484 40.1169 36.8912 40.1169H35.7318C35.7318 40.1169 35.6817 40.1097 35.6674 40.0954C35.6459 40.074 35.6459 40.0453 35.653 40.0095L37.2776 34.8924C37.292 34.8423 37.3277 34.8208 37.3778 34.8208H38.8092C38.8593 34.8208 38.8879 34.8423 38.9022 34.8924L40.534 40.0095C40.534 40.0095 40.5411 40.0382 40.5411 40.0525C40.5411 40.0954 40.5125 40.1169 40.4552 40.1169ZM44.8996 40.031C44.8996 40.031 44.8853 40.074 44.8709 40.0954C44.8495 40.1097 44.828 40.1169 44.8065 40.1169H41.1853C41.1853 40.1169 41.1351 40.1097 41.1208 40.0954C41.1065 40.074 41.0922 40.0525 41.0922 40.031V34.9067C41.0922 34.9067 41.1065 34.8638 41.1208 34.8423C41.1351 34.828 41.1566 34.8208 41.1853 34.8208H42.2587C42.2587 34.8208 42.3088 34.8208 42.3232 34.8423C42.3446 34.8638 42.3518 34.8853 42.3518 34.9067V39.0076C42.3518 39.0076 42.3661 39.0434 42.3876 39.0434H44.8065C44.8065 39.0434 44.8495 39.0505 44.8709 39.072C44.8853 39.0863 44.8996 39.1078 44.8996 39.1364V40.031ZM46.6887 40.031C46.6887 40.031 46.6816 40.074 46.6673 40.0954C46.6459 40.1097 46.6244 40.1169 46.6029 40.1169H45.5222C45.5222 40.1169 45.4793 40.1097 45.4578 40.0954C45.4435 40.074 45.4363 40.0525 45.4363 40.031V34.9067C45.4363 34.9067 45.4363 34.8638 45.4578 34.8423C45.4793 34.828 45.5007 34.8208 45.5222 34.8208H46.6029C46.6029 34.8208 46.6459 34.8208 46.6673 34.8423C46.6816 34.8638 46.6887 34.8853 46.6887 34.9067V40.031ZM38.0864 36.3524C38.0864 36.3524 38.072 36.3596 38.0649 36.3739L37.4995 38.3277C37.4995 38.3277 37.4995 38.3706 37.5281 38.3706H38.6589C38.6589 38.3706 38.6946 38.3563 38.6875 38.3277L38.1078 36.3739C38.1078 36.3739 38.1078 36.3452 38.0864 36.3524ZM26.8789 36.3739C26.8789 36.3739 26.8645 36.3452 26.8574 36.3524C26.8431 36.3524 26.8359 36.3596 26.8359 36.3739L26.2633 38.3277C26.2633 38.3277 26.2705 38.3706 26.2992 38.3706H27.4228C27.4228 38.3706 27.4657 38.3563 27.4514 38.3277L26.8789 36.3739ZM27.4514 38.3277L26.8789 36.3739C26.8789 36.3739 26.8645 36.3452 26.8574 36.3524C26.8431 36.3524 26.8359 36.3596 26.8359 36.3739L26.2633 38.3277C26.2633 38.3277 26.2705 38.3706 26.2992 38.3706H27.4228C27.4228 38.3706 27.4657 38.3563 27.4514 38.3277ZM38.1078 36.3739C38.1078 36.3739 38.1078 36.3452 38.0864 36.3524C38.0792 36.3524 38.072 36.3596 38.0649 36.3739L37.4995 38.3277C37.4995 38.3277 37.4995 38.3706 37.5281 38.3706H38.6589C38.6589 38.3706 38.6946 38.3563 38.6875 38.3277L38.1078 36.3739ZM38.1078 36.3739C38.1078 36.3739 38.1078 36.3452 38.0864 36.3524C38.0792 36.3524 38.072 36.3596 38.0649 36.3739L37.4995 38.3277C37.4995 38.3277 37.4995 38.3706 37.5281 38.3706H38.6589C38.6589 38.3706 38.6946 38.3563 38.6875 38.3277L38.1078 36.3739ZM27.4514 38.3277L26.8789 36.3739C26.8789 36.3739 26.8645 36.3452 26.8574 36.3524C26.8431 36.3524 26.8359 36.3596 26.8359 36.3739L26.2633 38.3277C26.2633 38.3277 26.2705 38.3706 26.2992 38.3706H27.4228C27.4228 38.3706 27.4657 38.3563 27.4514 38.3277ZM27.4514 38.3277L26.8789 36.3739C26.8789 36.3739 26.8645 36.3452 26.8574 36.3524C26.8431 36.3524 26.8359 36.3596 26.8359 36.3739L26.2633 38.3277C26.2633 38.3277 26.2705 38.3706 26.2992 38.3706H27.4228C27.4228 38.3706 27.4657 38.3563 27.4514 38.3277ZM27.4514 38.3277L26.8789 36.3739C26.8789 36.3739 26.8645 36.3452 26.8574 36.3524C26.8431 36.3524 26.8359 36.3596 26.8359 36.3739L26.2633 38.3277C26.2633 38.3277 26.2705 38.3706 26.2992 38.3706H27.4228C27.4228 38.3706 27.4657 38.3563 27.4514 38.3277Z" fill="#FFFBFA"/>
<path d="M25.2469 4.46777C13.9249 4.46777 4.70703 13.6786 4.70703 25.0079C4.70703 27.6129 5.19369 30.1035 6.08113 32.4008C6.11691 32.4939 6.1527 32.5798 6.1885 32.6729H7.08307C6.88268 32.2076 6.70379 31.7281 6.54634 31.2415C5.8879 29.2805 5.53721 27.1835 5.53721 25.0079C5.53721 14.1367 14.3758 5.29797 25.2469 5.29797C36.1181 5.29797 44.9567 14.1367 44.9567 25.0079C44.9567 27.1334 44.6203 29.1803 43.9905 31.1055C43.8187 31.6351 43.6184 32.1576 43.4036 32.6729H44.2983C44.3841 32.4653 44.4629 32.2577 44.5416 32.0502C45.3431 29.8531 45.7797 27.4842 45.7797 25.015C45.7797 13.6929 36.5689 4.47493 25.2469 4.47493" fill="#FFFBFA"/>
<path d="M0.253906 46.4862V42.7503C0.253906 42.6859 0.28969 42.6572 0.346944 42.6572H0.948114C0.998209 42.6572 1.03399 42.6716 1.06262 42.7217L1.87849 44.0385C1.87849 44.0385 1.91428 44.06 1.92143 44.0385L2.74446 42.7217C2.77309 42.6787 2.80887 42.6572 2.85897 42.6572H3.46014C3.52455 42.6572 3.55318 42.693 3.55318 42.7503V46.4862C3.55318 46.5506 3.51739 46.5792 3.46014 46.5792H2.85897C2.79456 46.5792 2.76593 46.5434 2.76593 46.4862V44.0528C2.76593 44.0528 2.74446 44.0099 2.72299 44.0385L2.1576 44.9617C2.12898 45.0047 2.09319 45.0261 2.0431 45.0261H1.75682C1.70673 45.0261 1.67094 45.0119 1.64232 44.9617L1.08409 44.0385C1.08409 44.0385 1.0483 44.017 1.0483 44.0528V46.4862C1.0483 46.5506 1.01252 46.5792 0.95527 46.5792H0.346944C0.282534 46.5792 0.253906 46.5434 0.253906 46.4862Z" fill="#249D64"/>
<path d="M6.65886 46.5037L6.50141 45.9812C6.50141 45.9812 6.48708 45.9526 6.46557 45.9526H5.0915C5.0915 45.9526 5.06288 45.9526 5.05572 45.9812L4.89827 46.5037C4.88396 46.5538 4.84817 46.5824 4.79092 46.5824H4.13965C4.07525 46.5824 4.03946 46.5395 4.06093 46.4751L5.25611 42.732C5.27042 42.682 5.30621 42.6533 5.36346 42.6533H6.18652C6.24374 42.6533 6.27951 42.682 6.29385 42.732L7.48904 46.4751C7.51048 46.5395 7.47471 46.5824 7.41032 46.5824H6.75903C6.70174 46.5824 6.66597 46.5538 6.65169 46.5037H6.65886ZM5.28474 45.3443H6.27951C6.27951 45.3443 6.31529 45.33 6.30813 45.3085L5.80002 43.5981C5.80002 43.5981 5.76424 43.5694 5.75708 43.5981L5.25611 45.3085C5.25611 45.3085 5.25611 45.3443 5.28474 45.3443Z" fill="#249D64"/>
<path d="M7.99609 46.4862V42.7503C7.99609 42.6859 8.03187 42.6572 8.08909 42.6572H8.66883C8.71894 42.6572 8.75472 42.6716 8.78333 42.7217L10.186 45.0548C10.186 45.0548 10.229 45.0762 10.229 45.0405V42.7503C10.229 42.6859 10.2647 42.6572 10.322 42.6572H10.9089C10.9733 42.6572 11.0019 42.693 11.0019 42.7503V46.4862C11.0019 46.5506 10.9662 46.5792 10.9089 46.5792H10.3364C10.2863 46.5792 10.2505 46.5577 10.2219 46.5148L8.81194 44.1602C8.81194 44.1602 8.769 44.1387 8.769 44.1745V46.4933C8.769 46.5577 8.74039 46.5863 8.6831 46.5863H8.08909C8.0247 46.5863 7.99609 46.5506 7.99609 46.4933V46.4862Z" fill="#249D64"/>
<path d="M14.5241 43.87C14.5241 44.5857 14.016 45.0581 13.2502 45.0581H12.4558C12.4558 45.0581 12.42 45.0723 12.42 45.0938V46.4894C12.42 46.5538 12.3843 46.5824 12.327 46.5824H11.7258C11.6614 46.5824 11.6328 46.5467 11.6328 46.4894V42.7464C11.6328 42.682 11.6686 42.6533 11.7258 42.6533H13.2788C14.0231 42.6533 14.517 43.14 14.517 43.87H14.5241ZM13.7369 43.8843C13.7369 43.5551 13.5078 43.3332 13.1643 43.3332H12.4558C12.4558 43.3332 12.42 43.3476 12.42 43.369V44.3924C12.42 44.3924 12.4344 44.4283 12.4558 44.4283H13.1643C13.5078 44.4283 13.7369 44.2064 13.7369 43.8915V43.8843Z" fill="#249D64"/>
<path d="M14.9336 45.2206V44.0183C14.9336 43.1738 15.5204 42.6084 16.4079 42.6084C17.2953 42.6084 17.8893 43.1738 17.8893 44.0183V45.2206C17.8893 46.0723 17.3025 46.6448 16.4079 46.6448C15.5133 46.6448 14.9336 46.0723 14.9336 45.2206ZM17.1021 45.2493V44.0112C17.1021 43.5746 16.8301 43.2883 16.415 43.2883C15.9999 43.2883 15.728 43.5746 15.728 44.0112V45.2493C15.728 45.6787 15.9999 45.965 16.415 45.965C16.8301 45.965 17.1021 45.6787 17.1021 45.2493Z" fill="#249D64"/>
<path d="M19.0908 46.5005L18.1032 42.7646C18.0889 42.7002 18.1175 42.6572 18.1891 42.6572H18.826C18.8833 42.6572 18.9191 42.6859 18.9262 42.7431L19.4558 44.9832C19.4558 44.9832 19.4988 45.0119 19.4988 44.9832L20.0069 42.7431C20.0212 42.6859 20.0498 42.6572 20.1071 42.6572H20.7441C20.8013 42.6572 20.8371 42.6859 20.8514 42.7431L21.4025 44.9832C21.4025 44.9832 21.4382 45.0119 21.4382 44.9832L21.9464 42.7431C21.9607 42.6859 21.9893 42.6572 22.0466 42.6572H22.6549C22.7193 42.6572 22.7479 42.7002 22.7336 42.7646L21.8319 46.5005C21.8176 46.5577 21.7817 46.5863 21.7245 46.5863H21.109C21.0518 46.5863 21.016 46.5577 21.0017 46.5005L20.4434 44.1172C20.4434 44.1172 20.4077 44.0814 20.4005 44.1172L19.8781 46.5005C19.8638 46.5577 19.8352 46.5863 19.7779 46.5863H19.2054C19.1481 46.5863 19.1123 46.5506 19.098 46.5005H19.0908Z" fill="#249D64"/>
<path d="M25.7827 43.3332H23.9721C23.9721 43.3332 23.9363 43.3476 23.9363 43.369V44.2279C23.9363 44.2279 23.9507 44.2637 23.9721 44.2637H25.1458C25.2102 44.2637 25.2388 44.2994 25.2388 44.3566V44.8433C25.2388 44.9077 25.2031 44.9364 25.1458 44.9364H23.9721C23.9721 44.9364 23.9363 44.9507 23.9363 44.9722V45.8667C23.9363 45.8667 23.9507 45.9025 23.9721 45.9025H25.7827C25.8472 45.9025 25.8758 45.9383 25.8758 45.9956V46.4823C25.8758 46.5467 25.84 46.5753 25.7827 46.5753H23.2492C23.1849 46.5753 23.1562 46.5395 23.1562 46.4823V42.7464C23.1562 42.682 23.192 42.6533 23.2492 42.6533H25.7827C25.8472 42.6533 25.8758 42.6891 25.8758 42.7464V43.2331C25.8758 43.2975 25.84 43.3261 25.7827 43.3261V43.3332Z" fill="#249D64"/>
<path d="M28.4954 46.5109L27.8083 44.9864C27.8083 44.9864 27.7869 44.9578 27.7725 44.9578H27.2644C27.2644 44.9578 27.2286 44.9722 27.2286 44.9936V46.4894C27.2286 46.5538 27.1929 46.5824 27.1356 46.5824H26.5345C26.47 46.5824 26.4414 46.5467 26.4414 46.4894V42.7464C26.4414 42.682 26.4772 42.6533 26.5345 42.6533H28.1089C28.8318 42.6533 29.3112 43.1328 29.3112 43.8342C29.3112 44.3424 29.0393 44.7288 28.5956 44.8791C28.5741 44.8791 28.5669 44.9077 28.5813 44.9221L29.3256 46.4679C29.3614 46.5323 29.3256 46.5824 29.2612 46.5824H28.6242C28.5741 46.5824 28.5312 46.5538 28.5097 46.5109H28.4954ZM27.2215 43.369V44.3137C27.2215 44.3137 27.2358 44.3495 27.2573 44.3495H27.9873C28.3022 44.3495 28.524 44.1491 28.524 43.8485C28.524 43.548 28.3022 43.3404 27.9873 43.3404H27.2573C27.2573 43.3404 27.2215 43.3547 27.2215 43.3762V43.369Z" fill="#249D64"/>
<path d="M30.8633 45.4575V45.3645C30.8633 45.3 30.8991 45.2714 30.9563 45.2714H31.5432C31.6076 45.2714 31.6362 45.3 31.6362 45.343V45.4217C31.6362 45.708 31.9225 45.9585 32.3805 45.9585C32.8099 45.9585 32.9674 45.7437 32.9674 45.5219C32.9674 45.2356 32.6811 45.1355 32.1443 44.9351C31.5575 44.7347 30.8847 44.4698 30.8847 43.7255C30.8847 43.0384 31.4501 42.6162 32.2517 42.6162C33.1177 42.6162 33.726 43.0957 33.726 43.8257V43.883C33.726 43.9474 33.6902 43.976 33.6329 43.976H33.0461C32.9817 43.976 32.953 43.9545 32.953 43.9187V43.8615C32.953 43.5681 32.7025 43.2961 32.2302 43.2961C31.8724 43.2961 31.672 43.4536 31.672 43.7184C31.672 44.0118 31.9225 44.112 32.5451 44.3267C33.0533 44.5128 33.7618 44.7275 33.7618 45.4932C33.7618 46.1803 33.2035 46.6312 32.3233 46.6312C31.443 46.6312 30.8633 46.1731 30.8633 45.4575Z" fill="#249D64"/>
<path d="M34.2852 45.2799V42.7464C34.2852 42.682 34.3209 42.6533 34.3782 42.6533H34.9794C35.0438 42.6533 35.0724 42.6891 35.0724 42.7464V45.2871C35.0724 45.6807 35.3372 45.9526 35.738 45.9526C36.1387 45.9526 36.4036 45.6807 36.4036 45.2871V42.7464C36.4036 42.682 36.4394 42.6533 36.4966 42.6533H37.0978C37.1622 42.6533 37.1908 42.6891 37.1908 42.7464V45.2799C37.1908 46.0886 36.604 46.6254 35.738 46.6254C34.872 46.6254 34.2852 46.0886 34.2852 45.2799Z" fill="#249D64"/>
<path d="M40.7038 43.87C40.7038 44.5857 40.1957 45.0581 39.4299 45.0581H38.6355C38.6355 45.0581 38.5997 45.0723 38.5997 45.0938V46.4894C38.5997 46.5538 38.564 46.5824 38.5067 46.5824H37.9055C37.8411 46.5824 37.8125 46.5467 37.8125 46.4894V42.7464C37.8125 42.682 37.8483 42.6533 37.9055 42.6533H39.4585C40.2028 42.6533 40.6967 43.14 40.6967 43.87H40.7038ZM39.9165 43.8843C39.9165 43.5551 39.6875 43.3332 39.344 43.3332H38.6355C38.6355 43.3332 38.5997 43.3476 38.5997 43.369V44.3924C38.5997 44.3924 38.614 44.4283 38.6355 44.4283H39.344C39.6875 44.4283 39.9165 44.2064 39.9165 43.8915V43.8843Z" fill="#249D64"/>
<path d="M44.0534 43.87C44.0534 44.5857 43.5453 45.0581 42.7795 45.0581H41.9851C41.9851 45.0581 41.9493 45.0723 41.9493 45.0938V46.4894C41.9493 46.5538 41.9136 46.5824 41.8563 46.5824H41.2552C41.1907 46.5824 41.1621 46.5467 41.1621 46.4894V42.7464C41.1621 42.682 41.1979 42.6533 41.2552 42.6533H42.8081C43.5525 42.6533 44.0463 43.14 44.0463 43.87H44.0534ZM43.2662 43.8843C43.2662 43.5551 43.0372 43.3332 42.6936 43.3332H41.9851C41.9851 43.3332 41.9493 43.3476 41.9493 43.369V44.3924C41.9493 44.3924 41.9637 44.4283 41.9851 44.4283H42.6936C43.0372 44.4283 43.2662 44.2064 43.2662 43.8915V43.8843Z" fill="#249D64"/>
<path d="M44.5391 46.4862V42.7503C44.5391 42.6859 44.5749 42.6572 44.6321 42.6572H45.2333C45.2977 42.6572 45.3264 42.693 45.3264 42.7503V45.8707C45.3264 45.8707 45.3406 45.9064 45.3621 45.9064H47.1656C47.2301 45.9064 47.2587 45.9422 47.2587 45.9995V46.4862C47.2587 46.5506 47.2229 46.5792 47.1656 46.5792H44.6321C44.5677 46.5792 44.5391 46.5434 44.5391 46.4862Z" fill="#249D64"/>
<path d="M48.4542 46.4823V45.0938C48.4542 45.0938 48.4542 45.0581 48.4398 45.0509L47.3091 42.7678C47.2733 42.7034 47.3091 42.6533 47.3735 42.6533H48.0248C48.0748 42.6533 48.1178 42.682 48.1393 42.7249L48.8264 44.1849C48.8264 44.1849 48.8621 44.2064 48.8692 44.1849L49.5563 42.7249C49.5778 42.682 49.6207 42.6533 49.6708 42.6533H50.3293C50.4008 42.6533 50.4366 42.7034 50.4008 42.7678L49.2557 45.0509C49.2557 45.0509 49.2414 45.0867 49.2414 45.0938V46.4823C49.2414 46.5467 49.2056 46.5753 49.1484 46.5753H48.5543C48.49 46.5753 48.4613 46.5395 48.4613 46.4823H48.4542Z" fill="#249D64"/>
</g>
<defs>
<clipPath id="clip0_153_5095">
<rect width="50.6699" height="46.3448" fill="white" transform="translate(0 0.827148)"/>
</clipPath>
</defs>
</svg>
