<svg width="53" height="48" viewBox="0 0 53 48" fill="none" xmlns="http://www.w3.org/2000/svg">
<g clip-path="url(#clip0_45_86)">
<path d="M46.1991 32.5106C46.1843 32.4513 46.1695 32.392 46.1473 32.3327C46.0287 31.9769 45.8285 31.6508 45.5765 31.3617C44.1977 29.7606 41.2105 29.0712 41.2105 29.0712C38.253 28.7303 37.9862 26.4324 37.9862 26.4324C39.4019 25.2983 39.9875 23.6972 39.9875 23.6972C42.1 22.8225 41.5367 19.7761 41.5367 19.7761C41.218 19.4351 40.5953 16.1217 40.5953 16.1217C37.6526 10.303 32.3231 12.7639 31.4113 13.2383C31.3817 13.2531 31.3521 13.2679 31.3372 13.2828C31.3002 13.305 31.2779 13.3198 31.2779 13.3198C30.6404 14.2983 30.3217 15.5361 30.2031 16.8556C30.2402 16.8703 30.2772 16.8852 30.3069 16.9C30.5293 17.0038 30.6997 17.1447 30.722 17.3151V19.0348C30.8702 18.4047 31.1371 17.9526 31.6559 17.9304C31.6559 17.9304 31.6559 17.9304 31.6633 17.9377C31.693 17.9377 31.73 17.9304 31.7671 17.9304C31.7671 17.9304 32.9902 18.9384 32.1674 21.1918C32.1674 21.1918 31.7745 22.867 30.8109 22.7929C30.7812 22.7929 30.7516 22.7929 30.7146 22.7929C30.7146 22.7929 30.6849 22.7929 30.6701 22.7929C30.6701 22.8225 30.6775 22.8448 30.6849 22.8744C30.8184 23.5489 30.9592 24.1716 31.0852 24.6979C31.1148 24.8165 31.1445 24.9351 31.1667 25.0537C31.3076 25.6467 31.4262 26.0988 31.478 26.3583C31.478 26.3805 31.478 26.4028 31.4854 26.4176C31.4854 26.462 31.5003 26.4991 31.5003 26.5288C31.5448 27.27 31.0481 27.863 30.9147 28.0039C30.8925 28.0261 30.885 28.0409 30.885 28.0409L31.3298 28.1447L31.7671 28.241C32.1229 27.863 32.3156 27.3886 32.3972 26.8475C34.2429 27.8111 35.8884 27.611 37.408 26.7363C37.5711 27.989 38.2456 28.7154 39.1722 29.1898C39.2537 30.5018 38.594 31.5396 37.66 32.481L37.6377 32.5032L37.5785 32.7478L37.5266 32.9776H46.2065C46.2065 32.6959 46.2065 32.5106 46.2065 32.5106M32.3156 25.8468C32.2712 25.8172 32.2267 25.795 32.1822 25.7653C31.7449 25.5874 31.4262 25.3576 31.2779 25.0463C31.226 24.9351 31.1963 24.8239 31.1963 24.6905C31.1963 24.6757 31.1963 24.6608 31.1963 24.646C32.0785 24.8017 32.7604 24.5793 33.2941 24.0382C33.2941 24.0382 33.3015 24.0308 33.3089 24.0234C33.2644 24.0234 33.2274 24.0308 33.1903 24.0382C32.7604 24.0679 32.4491 23.927 32.286 23.5861C32.1007 23.1932 32.1155 22.5187 32.3898 21.4883C32.8642 20.1763 32.9087 18.7235 32.7159 17.1817C32.6937 17.0408 32.6788 16.9 32.6566 16.7592C32.6566 16.7518 32.6566 16.737 32.6566 16.7295C32.5973 16.3219 32.5158 15.9142 32.4268 15.4991C32.4491 15.4991 32.4713 15.5065 32.4861 15.5139C34.3022 15.9142 35.9774 15.9957 37.4154 15.4991C38.4013 15.2915 39.0387 15.966 39.2611 17.708C39.5131 19.2127 39.4464 20.6136 38.7274 21.8071C39.1796 21.9034 39.5576 21.3549 39.7651 19.4202C40.1432 18.6271 40.5138 18.6197 40.877 19.8576C41.092 21.2289 40.7807 22.3927 39.4687 23.1635C37.786 26.2842 35.6142 27.8482 32.3305 25.8394" fill="#FFFBFA"/>
<path d="M19.9802 19.2348C20.0173 18.7233 20.0618 18.0562 20.0988 17.4262L19.9802 19.2348ZM21.6184 28.0704V28.0408V27.9889L20.8846 26.6176L21.1069 26.41L21.1514 26.3656L22.0483 25.5206L21.2552 23.6155L20.0321 20.3912L19.9283 20.1243L20.084 20.658L20.7141 22.8447V23.9862L21.2774 24.468L21.2033 24.6904L21.1884 24.7348C21.6035 24.8979 18.9351 26.7139 18.3792 26.499V25.7133H17.1561V26.4175C15.1176 26.0987 13.7909 24.9942 13.1163 23.1708C13.1163 23.1708 10.4701 21.6735 12.1824 19.0866C12.1824 19.0866 13.1386 19.6944 13.2497 22.0589C13.2497 22.0589 14.4209 23.408 13.7019 21.3103C12.9829 19.22 12.9458 14.2759 16.3333 15.4989C16.3333 15.4989 18.179 18.4787 19.7356 17.0185L19.8172 17.0926L19.9209 17.1816L20.121 17.3668C20.1433 16.9592 20.1655 16.5663 20.1729 16.2476C20.1729 16.2476 20.1359 16.2476 20.0692 16.2624C20.0395 16.2624 20.0024 16.2698 19.958 16.2772C19.4984 16.3291 18.4607 16.381 18.3124 15.7361V15.6991L20.1136 15.6398H20.1729C20.1729 15.5656 20.1729 15.5138 20.1581 15.4841C20.1581 15.4693 20.1581 15.4619 20.1507 15.4619C20.121 15.4174 20.1878 15.2395 20.3212 14.9949C20.4101 14.8318 20.5139 14.6391 20.64 14.439C21.0476 13.7644 21.5665 12.9787 21.6629 12.8305C21.6702 12.8156 21.6776 12.8082 21.6776 12.8082C21.6554 12.7934 21.6406 12.7712 21.6184 12.7563C20.0544 11.3702 17.4007 11.6445 17.3859 11.7779C17.371 11.9114 14.9694 12.6229 14.9694 12.6229C12.1898 13.0158 11.5078 15.4396 11.5375 18.5455C10.5294 21.0954 11.0112 22.7483 12.6864 23.6897C13.0051 24.594 13.6723 25.565 14.5321 26.5731C14.6136 28.1371 11.8858 29.2045 8.47611 30.1533C7.72008 30.5387 7.16411 30.9909 6.80834 31.495C6.54888 31.8656 6.39324 32.2658 6.32653 32.6958C6.3117 32.7847 6.30429 32.8811 6.29688 32.9775H15.9404C15.9775 31.9693 16.2963 30.3238 17.9492 30.1311C17.9492 30.1311 17.9492 30.1385 17.9566 30.1459C17.9937 30.1459 18.0233 30.1311 18.0604 30.1311C18.7127 31.369 19.4317 32.3622 20.2619 32.8514L21.4701 32.7921C20.084 31.9545 18.8906 31.028 18.4681 29.7457C19.5132 29.3009 20.5881 28.9599 21.6925 28.8116L21.6258 28.0704H21.6184ZM20.1952 28.4781C20.0395 28.5374 19.8616 28.6115 19.6615 28.6856C18.3939 29.1971 16.4297 30.0644 15.6439 30.7908C15.4661 30.9538 15.3548 31.1095 15.3178 31.2504C15.3178 31.2504 15.3104 31.2355 15.2956 31.2059C15.1399 30.9242 14.2727 29.3306 14.369 28.6634C14.369 28.6634 15.1621 27.685 15.1621 27.1513C15.9849 27.8851 16.83 28.4114 17.7194 28.4337C18.8684 28.0704 19.6837 27.5812 20.2471 26.9956C20.3582 27.4626 20.5213 27.9 20.8178 28.2483C20.8178 28.2483 20.5806 28.3373 20.1952 28.4855M17.801 30.4868C16.8225 30.9687 16.3926 31.8433 16.3481 32.9922H19.6244C19.6244 32.9922 19.6986 32.9849 19.7356 32.9775C18.8684 32.2658 18.2606 31.4209 17.8084 30.4868M20.1655 15.6843V15.8474V16.2624C20.1655 16.0993 20.1655 15.9585 20.1655 15.8399C20.1655 15.788 20.1655 15.7361 20.1655 15.6916" fill="#FFFBFA"/>
<path d="M19.8349 32.9618C19.8349 32.9618 19.7683 32.9692 19.7312 32.9766H16.3438C16.3882 31.8277 16.8181 30.953 17.7966 30.4712C17.8262 30.4564 17.8559 30.4415 17.8855 30.4268C18.3377 31.3756 18.9529 32.2428 19.8349 32.9618Z" fill="#FFFBFA"/>
<path d="M19.8349 32.9618C19.8349 32.9618 19.7683 32.9692 19.7312 32.9766H16.3438C16.3882 31.8277 16.8181 30.953 17.7966 30.4712C17.8262 30.4564 17.8559 30.4415 17.8855 30.4268C18.3377 31.3756 18.9529 32.2428 19.8349 32.9618Z" fill="#FFFBFA"/>
<path d="M37.6836 32.7485C37.6836 32.6596 37.6688 32.5633 37.654 32.4743C37.4909 31.1994 36.9053 30.1542 35.4673 29.5761C34.2517 29.0794 32.8581 28.605 31.3163 28.138C31.2051 28.1084 31.094 28.0713 30.9828 28.0417C30.9531 28.0269 30.9309 28.0195 30.9086 28.0046C30.3379 27.7378 29.9154 27.4264 30.0562 26.9372C30.4862 26.9002 30.968 26.7222 31.4794 26.4184C31.5091 26.3961 31.5461 26.3739 31.5758 26.359C31.8129 26.2182 32.0502 26.0477 32.3022 25.8476C32.3096 25.8476 32.3244 25.8328 32.3319 25.8253C32.28 25.8031 32.2281 25.7883 32.1688 25.7661C31.7314 25.5882 31.4127 25.3584 31.2645 25.047C31.2126 24.9433 31.1829 24.8247 31.1829 24.6913C31.1829 24.6764 31.1829 24.6616 31.1829 24.6468C32.065 24.8024 32.747 24.5801 33.2806 24.039C33.2806 24.039 33.288 24.0316 33.2954 24.0241C33.3325 23.9871 33.3622 23.95 33.3993 23.913C32.9545 23.9204 32.5987 23.8314 32.3837 23.5794C32.1391 23.2903 32.0872 22.7937 32.3022 21.9857C32.8729 20.0881 32.9767 18.5315 32.8137 17.175C32.7988 17.0268 32.7766 16.8934 32.7543 16.7526C32.7543 16.7452 32.7543 16.7303 32.7543 16.7229C32.6876 16.3004 32.5912 15.8927 32.4727 15.5073C32.317 14.9736 32.1243 14.4621 31.9093 13.9654C31.9093 13.9654 31.7685 13.6764 31.4497 13.2613C31.4423 13.2465 31.4275 13.2316 31.4127 13.2168C30.6937 12.3051 29.1297 10.8671 26.3574 10.7114C24.0299 10.8449 22.5548 11.8751 21.7098 12.7424C21.6876 12.7647 21.6654 12.7943 21.6431 12.8166C21.0576 13.4392 20.8055 13.9581 20.8055 13.9581C20.7388 14.1137 20.6721 14.2694 20.6128 14.425C20.5386 14.6104 20.472 14.7956 20.4053 14.981C20.3534 15.1441 20.294 15.3071 20.2496 15.4702C20.2348 15.5221 20.2199 15.574 20.2051 15.6259C20.1903 15.6852 20.1754 15.737 20.1607 15.7964C20.1607 15.7964 20.1607 15.8038 20.1607 15.8111C20.1235 15.952 20.0865 16.0929 20.0568 16.2411C20.0568 16.2411 20.0568 16.2485 20.0568 16.2559C19.9975 16.5153 19.9531 16.7896 19.916 17.0639C19.916 17.0935 19.916 17.1231 19.9086 17.1528C19.79 18.109 19.8122 19.1616 20.0272 20.3624C20.042 20.4513 20.0568 20.5329 20.0791 20.6218C20.168 21.0518 20.2793 21.5039 20.4201 21.9709C20.8277 23.483 20.2793 23.913 19.323 23.8907C19.7974 24.4392 20.4126 24.7135 21.1909 24.6616C21.228 24.6616 21.2651 24.6616 21.3022 24.6542C21.3763 24.6542 21.4504 24.6319 21.5319 24.6245C21.5319 25.1805 21.0872 25.5511 20.383 25.8031C20.6424 26.0107 20.9018 26.1885 21.1465 26.3368C21.1687 26.3516 21.1909 26.3665 21.2132 26.3739C21.732 26.6852 22.2138 26.8705 22.6586 26.9076C22.8069 27.419 22.3473 27.7378 21.7395 28.012C21.7024 28.0195 21.6728 28.0342 21.6431 28.0417C21.1909 28.1751 20.7536 28.3159 20.3311 28.4493C20.1162 28.5161 19.9012 28.5902 19.6862 28.6569C18.8115 28.946 17.9962 29.2425 17.2549 29.5464C16.5285 29.8429 16.0171 30.2506 15.6687 30.7546C15.5797 30.8881 15.4982 31.0289 15.4315 31.1697C15.1795 31.696 15.0609 32.2964 15.0312 32.9487H16.0689C16.106 31.9628 16.4174 30.3618 17.974 30.1172C18.011 30.1172 18.0407 30.1023 18.0777 30.1023C18.7374 31.3402 19.449 32.3334 20.2792 32.8227C20.2792 32.8227 20.2793 32.8227 20.2866 32.8227L21.5986 32.756C20.2125 31.9184 19.0191 30.9918 18.604 29.7094C19.6492 29.2647 20.724 28.9238 21.8284 28.7681C21.8432 28.7681 21.8581 28.7681 21.8729 28.7681C22.9848 28.2789 23.7557 27.4858 23.978 26.1812C24.6674 26.5592 25.4012 26.8853 26.3871 26.9002C27.3729 26.8853 28.1068 26.5592 28.7961 26.1812C29.0184 27.4783 29.7894 28.2789 30.9013 28.7681C32.0279 28.9164 33.1102 29.2647 34.1701 29.7094C33.755 30.9918 32.5542 31.9184 31.1755 32.756L32.4875 32.8227C33.3251 32.3334 34.0367 31.3328 34.6964 30.0949C36.342 30.2876 36.6607 31.9406 36.7052 32.9413H37.7429C37.7429 32.8598 37.7355 32.7856 37.7281 32.7115M26.3945 26.0477C23.3925 26.2701 22.0286 22.7418 22.0286 22.7418C20.9908 22.9271 20.5757 21.1481 20.5757 21.1481C19.7603 18.8947 20.976 17.8867 20.976 17.8867C21.6579 17.9163 21.8951 18.665 22.0211 19.6138V17.264C22.1027 16.6339 24.0595 16.5005 24.0595 16.5005C23.9039 15.3219 25.2604 14.4102 25.2604 14.4102C25.3271 15.0922 24.8453 16.1151 24.8453 16.1151H27.9289C27.9289 16.1151 27.4471 15.0922 27.5137 14.4102C27.5137 14.4102 28.8702 15.3219 28.7146 16.5005C28.7146 16.5005 29.6337 16.5672 30.2341 16.8118C30.2712 16.8267 30.3082 16.8415 30.3379 16.8563C30.5603 16.9601 30.7308 17.1009 30.753 17.2714V19.6212C30.8716 18.7242 31.094 17.9978 31.6944 17.9014C31.724 17.9014 31.7611 17.8941 31.7982 17.8941C31.7982 17.8941 33.0212 18.9021 32.1984 21.1555C32.1984 21.1555 31.8055 22.8307 30.8419 22.7566C30.8271 22.7566 30.8197 22.7566 30.8049 22.7566C30.7826 22.7566 30.7678 22.7566 30.7456 22.7566C30.7456 22.7566 30.7456 22.7566 30.7456 22.7715C30.7456 22.7715 30.7308 22.8085 30.7159 22.853C30.4787 23.4015 29.1074 26.2701 26.3945 26.07" fill="#FFFBFA"/>
<path d="M19.8349 32.9618C19.8349 32.9618 19.7683 32.9692 19.7312 32.9766H16.3438C16.3882 31.8277 16.8181 30.953 17.7966 30.4712C17.8262 30.4564 17.8559 30.4415 17.8855 30.4268C18.3377 31.3756 18.9529 32.2428 19.8349 32.9618Z" fill="#FFFBFA"/>
<path d="M36.3741 32.9766H32.9866C32.9866 32.9766 32.9199 32.9692 32.8828 32.9618C33.7649 32.2428 34.3802 31.3756 34.8323 30.4268C35.8774 30.9011 36.3296 31.7907 36.3741 32.9766Z" fill="#FFFBFA"/>
<path d="M26.2402 -0.000488281C11.8527 -0.000488281 0.148438 11.7038 0.148438 26.0913C0.148438 28.478 0.467172 30.7833 1.06758 32.9774H3.79535C3.12823 30.7982 2.76502 28.4855 2.76502 26.0913C2.76502 13.1491 13.2981 2.6161 26.2402 2.6161C39.1822 2.6161 49.7154 13.1491 49.7154 26.0913C49.7154 28.4855 49.3521 30.7982 48.685 32.9774H51.4128C52.0132 30.7833 52.3319 28.4707 52.3319 26.0913C52.3319 11.7038 40.6277 -0.000488281 26.2402 -0.000488281Z" fill="#FFFBFA"/>
<path d="M7.27047 38.8398C7.27047 38.8398 7.27047 38.8843 7.24084 38.8843H6.06969C6.06969 38.8843 6.03263 38.8694 6.04004 38.8398L6.63303 36.8162C6.63303 36.8162 6.64046 36.7939 6.65524 36.7939C6.66267 36.7939 6.67009 36.8014 6.67751 36.8162L7.27047 38.8398Z" fill="#FFFBFA"/>
<path d="M28.4419 38.8405L27.8489 36.8169C27.8489 36.8169 27.8341 36.7872 27.8266 36.7946C27.8118 36.7946 27.8044 36.8021 27.8044 36.8169L27.2114 38.8405C27.2114 38.8405 27.2188 38.885 27.2485 38.885H28.4122C28.4122 38.885 28.4567 38.8701 28.4419 38.8405ZM28.4419 38.8405L27.8489 36.8169C27.8489 36.8169 27.8341 36.7872 27.8266 36.7946C27.8118 36.7946 27.8044 36.8021 27.8044 36.8169L27.2114 38.8405C27.2114 38.8405 27.2188 38.885 27.2485 38.885H28.4122C28.4122 38.885 28.4567 38.8701 28.4419 38.8405ZM28.4419 38.8405L27.8489 36.8169C27.8489 36.8169 27.8341 36.7872 27.8266 36.7946C27.8118 36.7946 27.8044 36.8021 27.8044 36.8169L27.2114 38.8405C27.2114 38.8405 27.2188 38.885 27.2485 38.885H28.4122C28.4122 38.885 28.4567 38.8701 28.4419 38.8405ZM39.479 36.8169C39.479 36.8169 39.479 36.7872 39.4568 36.7946C39.4493 36.7946 39.4419 36.8021 39.4345 36.8169L38.849 38.8405C38.849 38.8405 38.849 38.885 38.8786 38.885H40.0497C40.0497 38.885 40.0868 38.8701 40.0794 38.8405L39.479 36.8169ZM39.479 36.8169C39.479 36.8169 39.479 36.7872 39.4568 36.7946C39.4493 36.7946 39.4419 36.8021 39.4345 36.8169L38.849 38.8405C38.849 38.8405 38.849 38.885 38.8786 38.885H40.0497C40.0497 38.885 40.0868 38.8701 40.0794 38.8405L39.479 36.8169ZM28.4419 38.8405L27.8489 36.8169C27.8489 36.8169 27.8341 36.7872 27.8266 36.7946C27.8118 36.7946 27.8044 36.8021 27.8044 36.8169L27.2114 38.8405C27.2114 38.8405 27.2188 38.885 27.2485 38.885H28.4122C28.4122 38.885 28.4567 38.8701 28.4419 38.8405ZM52.4878 33.4146H0.0078125L2.26119 37.951L0.0078125 42.4874H52.4878L50.2344 37.951L52.4878 33.4146ZM9.11028 40.6936H7.90944C7.85018 40.6936 7.81312 40.6713 7.79828 40.6194L7.59815 39.9153C7.59815 39.9153 7.57588 39.8856 7.55367 39.8856H5.76727C5.76727 39.8856 5.73762 39.9004 5.73021 39.9153L5.52266 40.6194C5.50784 40.6713 5.47078 40.6936 5.41888 40.6936H4.21807C4.18101 40.6936 4.15878 40.6862 4.14395 40.6713C4.12912 40.6491 4.12912 40.6194 4.13654 40.5824L5.81174 35.2825C5.83398 35.2306 5.86363 35.2083 5.91552 35.2083H7.39802C7.44986 35.2083 7.48698 35.2306 7.50176 35.2825L9.19181 40.5824C9.19181 40.5824 9.19924 40.6121 9.19924 40.6268C9.19924 40.6713 9.1696 40.6936 9.11028 40.6936ZM13.706 40.6046C13.706 40.6046 13.6986 40.6491 13.6764 40.6713C13.6615 40.6862 13.6393 40.6936 13.6096 40.6936H9.86637C9.86637 40.6936 9.81447 40.6862 9.79962 40.6713C9.77741 40.6491 9.76999 40.6268 9.76999 40.6046V35.2973C9.76999 35.2973 9.77741 35.2528 9.79962 35.2306C9.81447 35.2158 9.83668 35.2083 9.86637 35.2083H10.9782C10.9782 35.2083 11.0227 35.2083 11.0449 35.2306C11.0597 35.2528 11.0746 35.2751 11.0746 35.2973V39.5447C11.0746 39.5447 11.0746 39.5817 11.1116 39.5817H13.6096C13.6096 39.5817 13.6615 39.5891 13.6764 39.6114C13.6986 39.6262 13.706 39.6484 13.706 39.678V40.6046ZM19.9473 36.9948C19.9473 36.9948 19.9398 37.0393 19.925 37.0615C19.9028 37.0763 19.8805 37.0837 19.8583 37.0837H18.739C18.739 37.0837 18.6945 37.0763 18.6723 37.0615C18.6575 37.0393 18.6501 37.017 18.6501 36.9948C18.6501 36.7872 18.5759 36.6167 18.4351 36.4685C18.2869 36.3276 18.0941 36.2535 17.8495 36.2535C17.6049 36.2535 17.4122 36.3351 17.2714 36.4907C17.1231 36.6464 17.049 36.8539 17.049 37.1059V38.7886C17.049 39.0406 17.1305 39.2482 17.2936 39.4038C17.4566 39.5594 17.6568 39.6336 17.9014 39.6336C18.1312 39.6336 18.3165 39.5743 18.4573 39.4557C18.5982 39.3297 18.6723 39.1592 18.6723 38.9368V38.7219C18.6723 38.7219 18.6575 38.6774 18.6353 38.6774H17.8495C17.8495 38.6774 17.7976 38.67 17.7828 38.6551C17.7606 38.6329 17.7532 38.6106 17.7532 38.5884V37.7212C17.7532 37.7212 17.7606 37.6767 17.7828 37.6545C17.7976 37.6396 17.8199 37.6248 17.8495 37.6248H19.8583C19.8583 37.6248 19.9028 37.6396 19.925 37.6545C19.9398 37.6767 19.9473 37.699 19.9473 37.7212V38.7886C19.9473 39.1815 19.8657 39.5298 19.6878 39.8263C19.5099 40.1228 19.2653 40.3526 18.9466 40.5157C18.6353 40.6787 18.2646 40.7603 17.8495 40.7603C17.4344 40.7603 17.0638 40.6787 16.7451 40.5082C16.4264 40.3378 16.1818 40.108 16.0113 39.8041C15.8333 39.5002 15.7444 39.1443 15.7444 38.7515V37.143C15.7444 36.7427 15.8333 36.3943 16.0113 36.0979C16.1818 35.7939 16.4264 35.5642 16.7451 35.3937C17.0638 35.2232 17.427 35.1417 17.8495 35.1417C18.2721 35.1417 18.6278 35.2232 18.9466 35.3788C19.2653 35.5419 19.5099 35.7569 19.6878 36.0385C19.8657 36.3128 19.9473 36.6167 19.9473 36.9577V36.9948ZM24.7802 40.6046C24.7802 40.6046 24.7727 40.6491 24.7579 40.6713C24.7357 40.6862 24.7134 40.6936 24.6912 40.6936H23.5719C23.5719 40.6936 23.5274 40.6862 23.5052 40.6713C23.4904 40.6491 23.4829 40.6268 23.4829 40.6046V38.5143C23.4829 38.5143 23.4682 38.4773 23.4385 38.4773H21.9708C21.9708 38.4773 21.9338 38.4921 21.9338 38.5143V40.6046C21.9338 40.6046 21.9263 40.6491 21.9041 40.6713C21.8893 40.6862 21.8671 40.6936 21.8374 40.6936H20.7256C20.7256 40.6936 20.6811 40.6862 20.6588 40.6713C20.644 40.6491 20.6292 40.6268 20.6292 40.6046V35.2973C20.6292 35.2973 20.644 35.2528 20.6588 35.2306C20.6811 35.2158 20.7033 35.2083 20.7256 35.2083H21.8374C21.8374 35.2083 21.8893 35.2083 21.9041 35.2306C21.9263 35.2528 21.9338 35.2751 21.9338 35.2973V37.3209C21.9338 37.3209 21.9486 37.3654 21.9708 37.3654H23.4385C23.4385 37.3654 23.4829 37.3505 23.4829 37.3209V35.2973C23.4829 35.2973 23.4904 35.2528 23.5052 35.2306C23.5274 35.2158 23.5497 35.2083 23.5719 35.2083H24.6912C24.6912 35.2083 24.7357 35.2083 24.7579 35.2306C24.7727 35.2528 24.7802 35.2751 24.7802 35.2973V40.6046ZM30.2802 40.6936H29.0794C29.02 40.6936 28.983 40.6713 28.9682 40.6194L28.7681 39.9153C28.7681 39.9153 28.7458 39.8856 28.7309 39.8856H26.9372C26.9372 39.8856 26.9075 39.9004 26.9001 39.9153L26.6925 40.6194C26.6777 40.6713 26.6406 40.6936 26.5888 40.6936H25.388C25.3509 40.6936 25.3286 40.6862 25.3139 40.6713C25.299 40.6491 25.299 40.6194 25.3064 40.5824L26.9891 35.2825C27.0039 35.2306 27.0335 35.2083 27.0854 35.2083H28.5679C28.6198 35.2083 28.6568 35.2306 28.6717 35.2825L30.3617 40.5824C30.3617 40.5824 30.3691 40.6121 30.3691 40.6268C30.3691 40.6713 30.3395 40.6936 30.2802 40.6936ZM35.9507 40.6936H34.8314C34.7721 40.6936 34.7425 40.6639 34.7276 40.6121L34.0457 37.5804C34.0457 37.5804 34.0308 37.5507 34.0234 37.5507C34.0086 37.5507 34.0012 37.5581 34.0012 37.5804L33.386 40.6121C33.3786 40.6639 33.3415 40.6936 33.2822 40.6936H32.2371C32.1777 40.6936 32.1407 40.6713 32.1259 40.6194L30.6656 35.3047V35.2751C30.6582 35.2306 30.6879 35.2083 30.7471 35.2083H31.9331C31.985 35.2083 32.0221 35.2306 32.0369 35.2825L32.7189 38.1363C32.7189 38.1363 32.7337 38.1733 32.7411 38.1733C32.7559 38.1733 32.7633 38.1585 32.7708 38.1363L33.3786 35.2899C33.386 35.2306 33.423 35.2083 33.4824 35.2083H34.572C34.6239 35.2083 34.6609 35.2306 34.6757 35.2825L35.3577 38.1363C35.3577 38.1363 35.3651 38.1733 35.3799 38.1733C35.3873 38.1733 35.3948 38.1585 35.4022 38.1363L36.0396 35.2899C36.047 35.2306 36.0841 35.2083 36.1434 35.2083H37.2997C37.3739 35.2083 37.4035 35.238 37.3887 35.3047L36.0619 40.6194C36.047 40.6713 36.01 40.6936 35.9507 40.6936ZM41.9103 40.6936H40.7169C40.6576 40.6936 40.6205 40.6713 40.6057 40.6194L40.3981 39.9153C40.3981 39.9153 40.3759 39.8856 40.3611 39.8856H38.5747C38.5747 39.8856 38.545 39.9004 38.5302 39.9153L38.3301 40.6194C38.3153 40.6713 38.2782 40.6936 38.2189 40.6936H37.0181C37.0181 40.6936 36.9662 40.6862 36.9514 40.6713C36.9291 40.6491 36.9291 40.6194 36.9365 40.5824L38.6191 35.2825C38.634 35.2306 38.671 35.2083 38.7229 35.2083H40.2054C40.2573 35.2083 40.287 35.2306 40.3018 35.2825L41.9918 40.5824C41.9918 40.5824 41.9992 40.6121 41.9992 40.6268C41.9992 40.6713 41.9695 40.6936 41.9103 40.6936ZM46.5134 40.6046C46.5134 40.6046 46.4986 40.6491 46.4837 40.6713C46.4615 40.6862 46.4392 40.6936 46.417 40.6936H42.6664C42.6664 40.6936 42.6145 40.6862 42.5996 40.6713C42.5848 40.6491 42.57 40.6268 42.57 40.6046V35.2973C42.57 35.2973 42.5848 35.2528 42.5996 35.2306C42.6145 35.2158 42.6367 35.2083 42.6664 35.2083H43.7782C43.7782 35.2083 43.8301 35.2083 43.8449 35.2306C43.8671 35.2528 43.8746 35.2751 43.8746 35.2973V39.5447C43.8746 39.5447 43.8894 39.5817 43.9116 39.5817H46.417C46.417 39.5817 46.4615 39.5891 46.4837 39.6114C46.4986 39.6262 46.5134 39.6484 46.5134 39.678V40.6046ZM48.3665 40.6046C48.3665 40.6046 48.3591 40.6491 48.3443 40.6713C48.3221 40.6862 48.2998 40.6936 48.2776 40.6936H47.1583C47.1583 40.6936 47.1138 40.6862 47.0916 40.6713C47.0767 40.6491 47.0693 40.6268 47.0693 40.6046V35.2973C47.0693 35.2973 47.0693 35.2528 47.0916 35.2306C47.1138 35.2158 47.136 35.2083 47.1583 35.2083H48.2776C48.2776 35.2083 48.3221 35.2083 48.3443 35.2306C48.3591 35.2528 48.3665 35.2751 48.3665 35.2973V40.6046ZM39.4568 36.7946C39.4568 36.7946 39.4419 36.8021 39.4345 36.8169L38.849 38.8405C38.849 38.8405 38.849 38.885 38.8786 38.885H40.0497C40.0497 38.885 40.0868 38.8701 40.0794 38.8405L39.479 36.8169C39.479 36.8169 39.479 36.7872 39.4568 36.7946ZM27.8489 36.8169C27.8489 36.8169 27.8341 36.7872 27.8266 36.7946C27.8118 36.7946 27.8044 36.8021 27.8044 36.8169L27.2114 38.8405C27.2114 38.8405 27.2188 38.885 27.2485 38.885H28.4122C28.4122 38.885 28.4567 38.8701 28.4419 38.8405L27.8489 36.8169ZM28.4419 38.8405L27.8489 36.8169C27.8489 36.8169 27.8341 36.7872 27.8266 36.7946C27.8118 36.7946 27.8044 36.8021 27.8044 36.8169L27.2114 38.8405C27.2114 38.8405 27.2188 38.885 27.2485 38.885H28.4122C28.4122 38.885 28.4567 38.8701 28.4419 38.8405ZM39.479 36.8169C39.479 36.8169 39.479 36.7872 39.4568 36.7946C39.4493 36.7946 39.4419 36.8021 39.4345 36.8169L38.849 38.8405C38.849 38.8405 38.849 38.885 38.8786 38.885H40.0497C40.0497 38.885 40.0868 38.8701 40.0794 38.8405L39.479 36.8169ZM39.479 36.8169C39.479 36.8169 39.479 36.7872 39.4568 36.7946C39.4493 36.7946 39.4419 36.8021 39.4345 36.8169L38.849 38.8405C38.849 38.8405 38.849 38.885 38.8786 38.885H40.0497C40.0497 38.885 40.0868 38.8701 40.0794 38.8405L39.479 36.8169ZM28.4419 38.8405L27.8489 36.8169C27.8489 36.8169 27.8341 36.7872 27.8266 36.7946C27.8118 36.7946 27.8044 36.8021 27.8044 36.8169L27.2114 38.8405C27.2114 38.8405 27.2188 38.885 27.2485 38.885H28.4122C28.4122 38.885 28.4567 38.8701 28.4419 38.8405ZM28.4419 38.8405L27.8489 36.8169C27.8489 36.8169 27.8341 36.7872 27.8266 36.7946C27.8118 36.7946 27.8044 36.8021 27.8044 36.8169L27.2114 38.8405C27.2114 38.8405 27.2188 38.885 27.2485 38.885H28.4122C28.4122 38.885 28.4567 38.8701 28.4419 38.8405ZM28.4419 38.8405L27.8489 36.8169C27.8489 36.8169 27.8341 36.7872 27.8266 36.7946C27.8118 36.7946 27.8044 36.8021 27.8044 36.8169L27.2114 38.8405C27.2114 38.8405 27.2188 38.885 27.2485 38.885H28.4122C28.4122 38.885 28.4567 38.8701 28.4419 38.8405Z" fill="#FFFBFA"/>
<path d="M26.1643 3.77197C14.4378 3.77197 4.89062 13.3117 4.89062 25.0456C4.89062 27.7437 5.39467 30.3233 6.31381 32.7027C6.35087 32.799 6.38794 32.888 6.42502 32.9844H7.35155C7.14399 32.5025 6.95871 32.0059 6.79564 31.5019C6.11368 29.4709 5.75046 27.299 5.75046 25.0456C5.75046 13.7862 14.9048 4.63182 26.1643 4.63182C37.4238 4.63182 46.5781 13.7862 46.5781 25.0456C46.5781 27.2471 46.2297 29.3671 45.5775 31.361C45.3995 31.9096 45.192 32.4507 44.9696 32.9844H45.8962C45.9851 32.7694 46.0667 32.5544 46.1482 32.3395C46.9784 30.0639 47.4305 27.6104 47.4305 25.0531C47.4305 13.3266 37.8907 3.77938 26.1643 3.77938" fill="#FFFBFA"/>
<path d="M0.277344 47.2924V43.423C0.277344 43.3564 0.314406 43.3267 0.373705 43.3267H0.996351C1.04824 43.3267 1.0853 43.3415 1.11495 43.3934L1.95997 44.7573C1.95997 44.7573 1.99703 44.7795 2.00444 44.7573L2.85687 43.3934C2.88652 43.3489 2.92358 43.3267 2.97547 43.3267H3.59811C3.66482 43.3267 3.69448 43.3637 3.69448 43.423V47.2924C3.69448 47.359 3.65741 47.3887 3.59811 47.3887H2.97547C2.90875 47.3887 2.8791 47.3516 2.8791 47.2924V44.7721C2.8791 44.7721 2.85687 44.7276 2.83463 44.7573L2.24905 45.7135C2.2194 45.758 2.18234 45.7802 2.13045 45.7802H1.83395C1.78207 45.7802 1.745 45.7654 1.71535 45.7135L1.13718 44.7573C1.13718 44.7573 1.10012 44.735 1.10012 44.7721V47.2924C1.10012 47.359 1.06306 47.3887 1.00376 47.3887H0.373705C0.306994 47.3887 0.277344 47.3516 0.277344 47.2924Z" fill="#FFFBFA"/>
<path d="M6.91205 47.3058L6.74897 46.7647C6.74897 46.7647 6.73413 46.735 6.71185 46.735H5.2887C5.2887 46.735 5.25905 46.735 5.25164 46.7647L5.08856 47.3058C5.07374 47.3577 5.03667 47.3873 4.97738 47.3873H4.30284C4.23614 47.3873 4.19907 47.3428 4.22131 47.2761L5.45918 43.3994C5.47401 43.3476 5.51107 43.3179 5.57037 43.3179H6.42283C6.48209 43.3179 6.51915 43.3476 6.534 43.3994L7.77189 47.2761C7.79409 47.3428 7.75704 47.3873 7.69035 47.3873H7.01579C6.95646 47.3873 6.91941 47.3577 6.90462 47.3058H6.91205ZM5.48883 46.1049H6.51915C6.51915 46.1049 6.55621 46.0902 6.54878 46.0679L6.02253 44.2964C6.02253 44.2964 5.98547 44.2667 5.97806 44.2964L5.45918 46.0679C5.45918 46.0679 5.45918 46.1049 5.48883 46.1049Z" fill="#FFFBFA"/>
<path d="M8.30078 47.2924V43.423C8.30078 43.3564 8.33784 43.3267 8.3971 43.3267H8.99755C9.04945 43.3267 9.08651 43.3415 9.11614 43.3934L10.5689 45.8099C10.5689 45.8099 10.6134 45.8321 10.6134 45.795V43.423C10.6134 43.3564 10.6505 43.3267 10.7098 43.3267H11.3176C11.3844 43.3267 11.414 43.3637 11.414 43.423V47.2924C11.414 47.359 11.3769 47.3887 11.3176 47.3887H10.7247C10.6727 47.3887 10.6357 47.3665 10.6061 47.322L9.14577 44.8833C9.14577 44.8833 9.10129 44.8611 9.10129 44.8981V47.2997C9.10129 47.3665 9.07166 47.3961 9.01233 47.3961H8.3971C8.33041 47.3961 8.30078 47.359 8.30078 47.2997V47.2924Z" fill="#FFFBFA"/>
<path d="M15.061 44.578C15.061 45.3193 14.5348 45.8085 13.7416 45.8085H12.9188C12.9188 45.8085 12.8818 45.8233 12.8818 45.8456V47.2909C12.8818 47.3577 12.8447 47.3873 12.7854 47.3873H12.1627C12.096 47.3873 12.0664 47.3503 12.0664 47.2909V43.4143C12.0664 43.3476 12.1035 43.3179 12.1627 43.3179H13.7712C14.5421 43.3179 15.0536 43.8219 15.0536 44.578H15.061ZM14.2457 44.5928C14.2457 44.2519 14.0084 44.0221 13.6526 44.0221H12.9188C12.9188 44.0221 12.8818 44.0369 12.8818 44.0591V45.1191C12.8818 45.1191 12.8966 45.1562 12.9188 45.1562H13.6526C14.0084 45.1562 14.2457 44.9264 14.2457 44.6002V44.5928Z" fill="#FFFBFA"/>
<path d="M15.4805 45.979V44.7337C15.4805 43.859 16.0883 43.2734 17.0074 43.2734C17.9265 43.2734 18.5418 43.859 18.5418 44.7337V45.979C18.5418 46.8611 17.934 47.454 17.0074 47.454C16.0809 47.454 15.4805 46.8611 15.4805 45.979ZM17.7264 46.0087V44.7263C17.7264 44.2741 17.4448 43.9776 17.0148 43.9776C16.5849 43.9776 16.3033 44.2741 16.3033 44.7263V46.0087C16.3033 46.4534 16.5849 46.7499 17.0148 46.7499C17.4448 46.7499 17.7264 46.4534 17.7264 46.0087Z" fill="#FFFBFA"/>
<path d="M19.7883 47.3071L18.7654 43.4379C18.7506 43.3711 18.7803 43.3267 18.8544 43.3267H19.5141C19.5734 43.3267 19.6105 43.3564 19.6179 43.4156L20.1664 45.7358C20.1664 45.7358 20.2108 45.7654 20.2108 45.7358L20.7371 43.4156C20.752 43.3564 20.7816 43.3267 20.8409 43.3267H21.5006C21.5599 43.3267 21.597 43.3564 21.6118 43.4156L22.1826 45.7358C22.1826 45.7358 22.2196 45.7654 22.2196 45.7358L22.7459 43.4156C22.7607 43.3564 22.7904 43.3267 22.8497 43.3267H23.4797C23.5465 43.3267 23.5761 43.3711 23.5612 43.4379L22.6273 47.3071C22.6125 47.3665 22.5754 47.3961 22.5161 47.3961H21.8786C21.8194 47.3961 21.7823 47.3665 21.7675 47.3071L21.1893 44.8388C21.1893 44.8388 21.1522 44.8017 21.1448 44.8388L20.6037 47.3071C20.5889 47.3665 20.5593 47.3961 20.4999 47.3961H19.907C19.8476 47.3961 19.8106 47.359 19.7957 47.3071H19.7883Z" fill="#FFFBFA"/>
<path d="M26.7164 44.0221H24.8411C24.8411 44.0221 24.804 44.0369 24.804 44.0591V44.9487C24.804 44.9487 24.8189 44.9857 24.8411 44.9857H26.0567C26.1235 44.9857 26.1531 45.0228 26.1531 45.082V45.5861C26.1531 45.6528 26.116 45.6825 26.0567 45.6825H24.8411C24.8411 45.6825 24.804 45.6973 24.804 45.7195V46.6461C24.804 46.6461 24.8189 46.6831 24.8411 46.6831H26.7164C26.7832 46.6831 26.8128 46.7202 26.8128 46.7795V47.2836C26.8128 47.3503 26.7757 47.3799 26.7164 47.3799H24.0924C24.0257 47.3799 23.9961 47.3428 23.9961 47.2836V43.4143C23.9961 43.3476 24.0332 43.3179 24.0924 43.3179H26.7164C26.7832 43.3179 26.8128 43.3549 26.8128 43.4143V43.9183C26.8128 43.985 26.7757 44.0146 26.7164 44.0146V44.0221Z" fill="#FFFBFA"/>
<path d="M29.5297 47.3132L28.8181 45.7343C28.8181 45.7343 28.7959 45.7047 28.781 45.7047H28.2548C28.2548 45.7047 28.2177 45.7195 28.2177 45.7417V47.2909C28.2177 47.3577 28.1806 47.3873 28.1213 47.3873H27.4987C27.432 47.3873 27.4023 47.3503 27.4023 47.2909V43.4143C27.4023 43.3476 27.4394 43.3179 27.4987 43.3179H29.1294C29.8781 43.3179 30.3747 43.8145 30.3747 44.541C30.3747 45.0672 30.093 45.4675 29.6335 45.6231C29.6112 45.6231 29.6038 45.6528 29.6187 45.6676L30.3895 47.2687C30.4266 47.3354 30.3895 47.3873 30.3229 47.3873H29.6631C29.6112 47.3873 29.5668 47.3577 29.5446 47.3132H29.5297ZM28.2103 44.0591V45.0375C28.2103 45.0375 28.2251 45.0747 28.2473 45.0747H29.0034C29.3296 45.0747 29.5593 44.8671 29.5593 44.5558C29.5593 44.2445 29.3296 44.0295 29.0034 44.0295H28.2473C28.2473 44.0295 28.2103 44.0443 28.2103 44.0665V44.0591Z" fill="#FFFBFA"/>
<path d="M31.9805 46.223V46.1267C31.9805 46.0599 32.0175 46.0303 32.0769 46.0303H32.6847C32.7513 46.0303 32.781 46.0599 32.781 46.1044V46.1859C32.781 46.4824 33.0775 46.7419 33.5519 46.7419C33.9967 46.7419 34.1597 46.5195 34.1597 46.2897C34.1597 45.9932 33.8632 45.8895 33.3073 45.6819C32.6994 45.4744 32.0027 45.2001 32.0027 44.4292C32.0027 43.7176 32.5883 43.2803 33.4185 43.2803C34.3154 43.2803 34.9455 43.7769 34.9455 44.533V44.5923C34.9455 44.659 34.9083 44.6887 34.8491 44.6887H34.2413C34.1745 44.6887 34.1449 44.6664 34.1449 44.6293V44.5701C34.1449 44.2661 33.8854 43.9845 33.3962 43.9845C33.0256 43.9845 32.818 44.1475 32.818 44.4218C32.818 44.7257 33.0775 44.8295 33.7224 45.0519C34.2487 45.2446 34.9825 45.467 34.9825 46.26C34.9825 46.9717 34.4043 47.4387 33.4926 47.4387C32.5809 47.4387 31.9805 46.9642 31.9805 46.223Z" fill="#FFFBFA"/>
<path d="M35.5195 46.0383V43.4143C35.5195 43.3476 35.5566 43.3179 35.6159 43.3179H36.2386C36.3053 43.3179 36.3349 43.3549 36.3349 43.4143V46.0457C36.3349 46.4534 36.6092 46.735 37.0243 46.735C37.4393 46.735 37.7136 46.4534 37.7136 46.0457V43.4143C37.7136 43.3476 37.7507 43.3179 37.81 43.3179H38.4326C38.4994 43.3179 38.529 43.3549 38.529 43.4143V46.0383C38.529 46.8759 37.9212 47.4318 37.0243 47.4318C36.1273 47.4318 35.5195 46.8759 35.5195 46.0383Z" fill="#FFFBFA"/>
<path d="M42.1703 44.578C42.1703 45.3193 41.6441 45.8085 40.851 45.8085H40.0282C40.0282 45.8085 39.9911 45.8233 39.9911 45.8456V47.2909C39.9911 47.3577 39.9541 47.3873 39.8948 47.3873H39.2721C39.2054 47.3873 39.1758 47.3503 39.1758 47.2909V43.4143C39.1758 43.3476 39.2128 43.3179 39.2721 43.3179H40.8806C41.6515 43.3179 42.163 43.8219 42.163 44.578H42.1703ZM41.355 44.5928C41.355 44.2519 41.1178 44.0221 40.762 44.0221H40.0282C40.0282 44.0221 39.9911 44.0369 39.9911 44.0591V45.1191C39.9911 45.1191 40.0059 45.1562 40.0282 45.1562H40.762C41.1178 45.1562 41.355 44.9264 41.355 44.6002V44.5928Z" fill="#FFFBFA"/>
<path d="M45.6392 44.578C45.6392 45.3193 45.1129 45.8085 44.3197 45.8085H43.4969C43.4969 45.8085 43.4599 45.8233 43.4599 45.8456V47.2909C43.4599 47.3577 43.4228 47.3873 43.3635 47.3873H42.7409C42.6742 47.3873 42.6445 47.3503 42.6445 47.2909V43.4143C42.6445 43.3476 42.6816 43.3179 42.7409 43.3179H44.3494C45.1203 43.3179 45.6317 43.8219 45.6317 44.578H45.6392ZM44.8238 44.5928C44.8238 44.2519 44.5866 44.0221 44.2308 44.0221H43.4969C43.4969 44.0221 43.4599 44.0369 43.4599 44.0591V45.1191C43.4599 45.1191 43.4747 45.1562 43.4969 45.1562H44.2308C44.5866 45.1562 44.8238 44.9264 44.8238 44.6002V44.5928Z" fill="#FFFBFA"/>
<path d="M46.1445 47.2924V43.423C46.1445 43.3564 46.1816 43.3267 46.2409 43.3267H46.8636C46.9303 43.3267 46.96 43.3637 46.96 43.423V46.6549C46.96 46.6549 46.9747 46.6919 46.997 46.6919H48.8649C48.9317 46.6919 48.9613 46.729 48.9613 46.7883V47.2924C48.9613 47.359 48.9242 47.3887 48.8649 47.3887H46.2409C46.1742 47.3887 46.1445 47.3516 46.1445 47.2924Z" fill="#FFFBFA"/>
<path d="M50.1968 47.2836V45.8456C50.1968 45.8456 50.1968 45.8085 50.1819 45.8011L49.0108 43.4365C48.9737 43.3698 49.0108 43.3179 49.0775 43.3179H49.752C49.8039 43.3179 49.8483 43.3476 49.8706 43.392L50.5822 44.9042C50.5822 44.9042 50.6193 44.9264 50.6267 44.9042L51.3383 43.392C51.3605 43.3476 51.405 43.3179 51.4569 43.3179H52.1388C52.213 43.3179 52.25 43.3698 52.213 43.4365L51.027 45.8011C51.027 45.8011 51.0121 45.8381 51.0121 45.8456V47.2836C51.0121 47.3503 50.9751 47.3799 50.9157 47.3799H50.3005C50.2338 47.3799 50.2042 47.3428 50.2042 47.2836H50.1968Z" fill="#FFFBFA"/>
</g>
<defs>
<clipPath id="clip0_45_86">
<rect width="52.48" height="48" fill="white"/>
</clipPath>
</defs>
</svg>
